<svg width="22" height="22" viewBox="0 0 22 22" fill="none" xmlns="http://www.w3.org/2000/svg">
<path d="M11 2.0625C8.68917 2.06254 6.46818 2.9576 4.80304 4.55986C3.13791 6.16212 2.15807 8.34704 2.06913 10.6561C1.98019 12.9653 2.78905 15.2191 4.32601 16.9447C5.86296 18.6703 8.00852 19.7335 10.3125 19.9113V13.0626H8.25C8.06766 13.0626 7.89279 12.9901 7.76386 12.8612C7.63493 12.7323 7.5625 12.5574 7.5625 12.3751C7.5625 12.1927 7.63493 12.0179 7.76386 11.8889C7.89279 11.76 8.06766 11.6876 8.25 11.6876H10.3125V9.62508C10.3133 8.89599 10.6033 8.197 11.1189 7.68146C11.6344 7.16591 12.3334 6.87591 13.0625 6.87508H14.4375C14.6198 6.87508 14.7947 6.94751 14.9236 7.07644C15.0526 7.20538 15.125 7.38024 15.125 7.56258C15.125 7.74492 15.0526 7.91979 14.9236 8.04872C14.7947 8.17765 14.6198 8.25008 14.4375 8.25008H13.0625C12.698 8.2505 12.3485 8.3955 12.0907 8.65327C11.8329 8.91104 11.6879 9.26054 11.6875 9.62508V11.6876H13.75C13.9323 11.6876 14.1072 11.76 14.2361 11.8889C14.3651 12.0179 14.4375 12.1927 14.4375 12.3751C14.4375 12.5574 14.3651 12.7323 14.2361 12.8612C14.1072 12.9901 13.9323 13.0626 13.75 13.0626H11.6875V19.9113C13.9915 19.7335 16.137 18.6703 17.674 16.9447C19.2109 15.2191 20.0198 12.9653 19.9308 10.6561C19.8419 8.34704 18.8621 6.16213 17.1969 4.55987C15.5318 2.95761 13.3108 2.06255 11 2.0625Z" fill="#0D0E10"/>
</svg>
