<svg width="55" height="45" viewBox="0 0 55 45" fill="none" xmlns="http://www.w3.org/2000/svg">
<path d="M3.83393 22.2351C4.04366 20.8087 4.60398 18.3307 5.07885 16.7687C5.54602 15.1812 6.05369 13.3589 6.19822 12.7311L6.45166 11.5419L12.6204 9.76528L18.7637 7.9963L23.459 8.80605L28.1543 9.6158L28.5894 10.5974L29.0245 11.579L34.051 10.258C42.5177 7.98319 43.4386 7.90026 45.3563 9.18589C47.2 10.4104 48.481 12.4444 49.4652 15.7086C49.9088 17.2718 50.2965 19.0188 50.2872 19.6337C50.2944 21.1337 49.5839 23.8517 48.9524 24.7098C48.1554 25.7569 46.8576 26.343 40.4597 28.4669L34.5719 30.4371L33.6776 33.0992C33.1975 34.5515 32.6591 36.2718 32.5068 36.8741L32.2635 38.0046L26.3473 39.7885L20.4056 41.5802L15.5318 40.8243L10.6325 40.076L9.67081 38.363C9.13372 37.4122 8.29753 36.023 7.81427 35.2506C6.62796 33.4384 4.70347 29.1781 4.00616 26.7734C3.49096 25.0648 3.46224 24.6005 3.83393 22.2351ZM8.23813 33.704L10.9503 39.2847L15.997 37.8464C19.1413 36.9261 21.0385 36.2984 20.9923 36.1454C20.9462 35.9924 19.5568 33.0452 17.8961 29.5677C16.2355 26.0902 14.8076 23.0155 14.723 22.735C14.5616 22.1995 14.4596 22.2303 9.43589 23.7451L4.31021 25.2907L4.9347 26.7159C5.27508 27.4757 6.75924 30.6447 8.23813 33.704ZM11.8468 21.961L14.3738 21.1155L15.322 16.8792C15.8519 14.5773 16.4807 11.7727 16.724 10.6422L17.1956 8.60824L12.1873 10.1741L7.18671 11.7654L5.72845 17.9081L4.27019 24.0509L6.78222 23.4325C8.18234 23.0938 10.4596 22.4349 11.8468 21.961ZM17.8604 40.4281L21.0168 40.8395L25.5305 39.4785L30.0696 38.1097L25.7062 37.4781C20.881 36.791 21.1514 36.7651 15.9395 38.6705C12.6782 39.8486 12.5301 39.7264 17.8604 40.4281ZM15.9288 23.8737C16.0389 24.1465 15.9997 23.4629 15.8552 22.338C15.7108 21.2131 15.5942 19.9964 15.5708 19.6418C15.5728 19.2795 15.4125 19.5783 15.2477 20.3234C15.0425 21.3034 15.051 21.885 15.3529 22.5173C15.5755 22.9787 15.8187 23.6009 15.9288 23.8737ZM17.4466 25.586C17.3977 25.2391 17.2439 24.729 17.1006 24.4384C16.9496 24.1223 16.9755 24.3927 17.1678 25.0302C17.36 25.6677 17.4879 25.9073 17.4466 25.586ZM19.3667 28.5401C19.9321 29.6771 20.8323 31.1861 21.3512 31.8921C22.3149 33.2428 24.5576 35.2372 25.4894 35.6517C25.7727 35.7611 25.4202 35.4222 24.7203 34.8543C21.5228 32.3689 19.9427 29.8965 18.4816 25.0513C16.8899 19.7726 16.9913 15.6804 18.8081 12.295C19.5027 11.0005 19.5128 10.9418 18.917 11.7336C17.8831 13.1024 17.1852 15.6776 17.1276 18.2543C17.0157 22.1272 17.6883 25.0958 19.3667 28.5401ZM21.453 35.3666C21.7088 35.8459 22.1888 36.1462 23.0514 36.3313C24.2406 36.5847 24.271 36.4086 23.1959 35.7035C22.9304 35.561 22.1743 34.8987 21.5356 34.2567C20.2558 33.0569 20.2558 33.0569 21.453 35.3666ZM21.2824 30.188C23.141 32.9381 25.7335 35.0774 27.5452 35.3657C28.8542 35.5552 31.1238 34.8708 31.7707 34.0637C32.5297 33.1672 33.3109 31.791 33.4478 31.1377C33.5644 30.6018 33.4547 30.607 30.8054 31.6006C27.7558 32.7428 27.1487 32.7589 25.4661 31.7919C23.3111 30.5499 21.5141 28.0038 20.5221 24.7142C19.3509 20.9223 19.5016 17.455 20.8783 15.009L21.5272 13.8397L24.7379 12.955C26.4797 12.4576 27.8923 11.976 27.8539 11.8485C27.777 11.5935 25.635 10.4868 24.5656 10.1694C24.1062 10.0297 23.295 10.1074 22.4025 10.3765C19.3169 11.3069 17.8952 14.4341 18.0152 19.9062C18.0532 21.5083 18.2458 22.4239 19.2475 25.3768C20.0391 27.7253 20.7251 29.3545 21.2824 30.188ZM18.4357 10.599C18.9911 10.042 19.7736 9.50007 20.1306 9.39241C20.7604 9.17468 20.7272 9.15686 19.7473 8.9516C19.1782 8.81719 18.5811 8.77466 18.3949 8.80299C18.1144 8.88757 17.072 11.4275 17.2712 11.5343C17.3376 11.57 17.8472 11.1381 18.4357 10.599ZM24.0977 29.2834C25.8733 31.1127 27.2288 31.7332 28.6314 31.3103L29.4984 31.0489L28.6072 30.3996C26.5846 28.9508 25.4853 27.3349 24.4658 24.4153C23.0748 20.3558 22.9462 17.8073 24.0137 14.9817L24.372 13.9556L23.5304 14.2093C21.8219 14.7245 20.7811 16.6241 20.6296 19.5352C20.538 21.538 20.5664 21.7242 21.5733 24.7867C22.488 27.5432 22.5928 27.7064 24.0977 29.2834ZM27.7965 36.2914C28.1026 36.1991 28.0771 36.2068 26.898 35.8947L26.0022 35.6918L26.768 36.0173C27.1918 36.2234 27.6435 36.3375 27.7965 36.2914ZM25.8509 26.0563C26.9967 28.1033 28.0519 29.2039 29.6729 29.9669C30.7707 30.4705 31.207 30.5337 32.074 30.2722L33.1451 29.9493L32.2744 29.4607C27.8905 26.9157 25.2914 18.2964 27.5454 13.7776L27.9931 12.8637L26.9476 13.1789C23.5304 14.2093 22.9784 20.7743 25.8509 26.0563ZM31.3188 37.4549C31.4718 37.4087 31.7135 36.9186 31.8556 36.375L32.0787 35.3618L31.2606 35.9702C30.8044 36.3025 30.0932 36.7116 29.6852 36.8347L28.9278 37.0909L29.9665 37.3062C30.5356 37.4407 31.1326 37.4832 31.3188 37.4549ZM30.3648 26.726C32.1409 28.8333 33.9356 29.7109 35.4656 29.2495C36.2817 29.0035 36.21 28.8582 34.8897 27.8931C31.2837 25.2526 29.0765 17.6558 30.6751 13.3625L31.2317 11.8871L30.4412 12.1255C28.9876 12.5638 27.9437 13.9914 27.5639 16.0532C27.1716 18.258 27.3031 19.2477 28.3638 22.4887C29.2247 25.0668 29.5982 25.8443 30.3648 26.726ZM33.6083 25.581C35.3386 27.8134 37.1997 28.7266 38.9083 28.2114L39.7243 27.9654L38.4295 26.9927C36.2025 25.3273 35.7447 24.5473 34.4452 20.2377C33.1534 15.9535 33.0883 14.9995 34.0133 12.4393C34.2979 11.6302 34.5213 10.8952 34.4906 10.7932C34.4291 10.5892 32.9735 11.3897 32.2983 12.0106C31.4575 12.8205 30.8835 14.6072 30.7717 16.7273C30.7076 18.3602 30.8258 18.9366 31.679 21.4891C32.4014 23.6081 32.9259 24.7018 33.6083 25.581ZM36.0512 22.9805C37.197 25.0274 38.2522 26.1281 39.8733 26.8911C41.1702 27.5016 41.2798 27.4963 43.1159 26.9427C44.1615 26.6274 45.0054 26.2895 44.9823 26.213C44.9593 26.1365 44.5865 25.915 44.1526 25.7677C43.7365 25.5871 42.7736 24.7925 42.03 23.9874C40.681 22.5581 40.6733 22.5326 39.5199 18.7075C38.4357 15.1118 38.3944 14.7904 38.6066 13.2798C38.7584 12.3995 39.096 11.2127 39.4243 10.6408C39.7271 10.0765 39.8769 9.55844 39.7441 9.4872C39.6446 9.43376 38.8055 9.60333 37.8874 9.88015C35.8474 10.4953 34.9787 11.3971 34.484 13.3545C33.784 16.2919 34.3784 19.924 36.0512 22.9805ZM41.2283 21.6976C42.7449 24.3283 45.0354 25.8353 46.7848 25.3634C47.9146 25.0506 48.6659 24.1286 49.1456 22.3982C49.7929 20.1165 49.6578 18.3768 48.5922 15.3041C47.7775 12.8791 47.5703 12.4687 46.3439 11.1693C44.0801 8.73614 42.1178 8.4098 40.5079 10.1749C39.7412 11.046 39.1473 13.2281 39.2137 15.0163C39.2492 16.7026 40.2642 20.0687 41.2283 21.6976Z" fill="#64EF0E"/>
<path d="M39.9454 15.0453C39.9499 12.8462 40.9502 11.1814 42.6077 10.6816C45.2598 9.88188 48.5083 14.1046 48.683 18.5587C48.797 21.6123 48.0339 23.2334 46.1724 23.7947C45.1268 24.11 42.8699 22.8988 41.9572 21.5327C41.2796 20.4851 39.9368 16.2163 39.9454 15.0453ZM42.9675 21.5618C43.8183 22.4459 44.9953 23.1203 45.753 23.1422C46.6027 23.192 47.5705 22.0656 47.9078 20.6007C48.2045 19.3706 48.1782 18.8222 47.6549 16.81C47.1624 14.8999 46.886 14.26 46.0656 13.1998C44.9537 11.7268 43.8074 11.1544 42.7109 11.4851C41.5124 11.8465 41.1076 12.4415 40.8245 14.3629C40.5565 16.0573 40.5824 16.3276 41.3303 18.439C41.9067 20.0734 42.362 20.9377 42.9675 21.5618Z" fill="#64EF0E"/>
</svg>
