<svg width="55" height="53" viewBox="0 0 55 53" fill="none" xmlns="http://www.w3.org/2000/svg">
<path d="M28.1399 4.48466C26.142 4.59332 24.0631 5.45495 23.1826 6.53172C22.8097 6.98567 21.3114 11.2488 20.9661 12.8738C20.8095 13.6107 20.7328 13.6931 19.8388 13.9969L18.8842 14.3074L18.4465 16.367L18.0089 18.4265L18.7196 21.4015C19.2142 23.4419 19.5803 24.5071 19.8722 24.8061C20.183 25.1091 20.278 25.4058 20.2017 25.7648C20.1053 26.2182 19.7737 26.3848 17.0878 27.3149C15.4442 27.8938 13.5956 28.5081 13.0063 28.6791C12.3942 28.865 11.4813 29.1647 10.9487 29.3478C10.4121 29.5497 9.88351 29.7139 9.78101 29.7316C8.84359 29.8681 4.64518 31.5037 3.55354 32.1802L2.17612 32.9934L1.73848 35.0529C1.3129 37.0558 1.31172 37.1543 1.7097 38.7199C2.47308 41.7258 4.34581 44.1578 6.2353 44.5593C7.36899 44.8002 9.40419 44.423 12.3369 43.4466C15.0795 42.5285 17.2585 41.8462 18.8591 41.3766C20.631 40.8447 31.7444 37.2423 36.1495 35.7493C39.4017 34.6631 41.0144 34.1369 43.7948 33.2268C46.1072 32.4741 48.6013 31.4242 49.1942 30.9577C51.2745 29.346 51.2456 25.1138 49.139 21.6447C48.1324 19.9695 47.1163 19.0821 45.9449 18.8332C45.0379 18.6405 42.0384 19.188 39.9836 19.9363C38.9143 20.3212 38.8577 20.3092 38.6803 19.9358C38.3336 19.1512 38.3347 17.4729 38.7057 14.3328C38.9199 12.5812 39.0654 10.8743 39.0621 10.5181C38.9664 9.01672 37.8091 7.58592 35.6617 6.2607C34.6123 5.62301 34.152 5.46595 31.8239 4.99101C30.1612 4.63769 28.7767 4.46198 28.1399 4.48466ZM34.5217 6.23568C35.8963 6.92273 37.5404 8.20024 37.9936 8.94823C38.3129 9.49004 38.2454 9.43619 37.3724 8.61876C35.7387 7.10648 34.2885 6.40337 31.6433 5.84128C28.635 5.22179 26.857 5.31793 24.3451 6.26529C24.0216 6.39402 24.1253 6.27781 24.5983 6.00313C25.659 5.37935 26.7231 5.11174 28.4174 5.03733C30.2143 4.9452 33.0566 5.50966 34.5217 6.23568ZM33.8686 6.98557C35.3091 7.54839 37.2652 9.03043 37.8632 10.0264L38.3016 10.7515L37.6703 10.0052C36.0751 8.12585 32.6794 6.63414 29.4276 6.41711C27.5426 6.2733 26.2868 6.42116 24.7875 6.97148L23.6118 7.39308L24.4016 6.92897C25.279 6.42424 26.9701 5.99366 28.3542 5.89279C29.4914 5.83822 32.277 6.39064 33.8686 6.98557ZM35.1261 8.59563C36.2092 9.26025 37.2659 10.2352 37.5921 10.8377C37.718 11.0817 37.564 10.97 37.1707 10.5902C34.2933 7.58926 27.4888 6.34084 23.9248 8.15076L23.1699 8.54331L23.8234 8.06999C24.6602 7.47763 26.3256 6.98233 27.8728 6.85691C29.5604 6.72179 33.712 7.72247 35.1261 8.59563ZM34.165 9.1221C35.5099 9.76333 36.6771 10.6828 37.4114 11.688C37.9929 12.483 37.7971 12.3821 36.7943 11.3396C34.4926 8.97448 28.7847 7.58387 25.2502 8.5114C24.7297 8.63777 24.1095 8.86144 23.8655 8.98733L23.4233 9.20935L23.8976 8.83617C24.4635 8.40348 26.0412 7.9488 27.5736 7.80047C29.0075 7.65095 32.5488 8.36396 34.165 9.1221ZM33.678 9.92702C35.016 10.5076 36.9263 12.0194 37.4499 12.9008L37.8883 13.6259L37.257 12.8795C35.7928 11.1268 33.3597 9.93836 30.0627 9.37603C27.6241 8.95659 25.4859 9.07494 24.1258 9.71407C23.0514 10.2164 22.7519 10.2318 23.6064 9.74194C24.5944 9.1817 26.3043 8.75514 27.6385 8.70293C28.9498 8.6656 32.4116 9.38145 33.678 9.92702ZM34.0052 11.0827C35.2286 11.7376 36.7702 13.0328 37.2086 13.7579C37.4684 14.2081 37.367 14.1273 36.6859 13.4296C35.3722 12.0841 33.8436 11.2853 31.2602 10.6179C28.0006 9.78702 25.5183 9.85199 23.4153 10.827C22.4286 11.2887 22.4056 11.3036 23.0551 10.8492C23.9149 10.2419 25.8688 9.68949 27.2975 9.65736C28.9461 9.6127 32.7817 10.4277 34.0052 11.0827ZM33.7517 11.9965C35.0777 12.6337 36.2638 13.5572 37.0021 14.5435L37.539 15.2697L36.5458 14.3675C34.7621 12.7246 33.4849 12.1372 30.2538 11.4507C27.1133 10.8031 25.8438 10.8296 23.7094 11.5806C22.7278 11.925 22.69 11.917 23.1792 11.5667C23.8287 11.1123 25.6033 10.66 27.0212 10.586C28.4619 10.4972 32.2975 11.3123 33.7517 11.9965ZM34.8717 13.6958C35.612 14.2086 36.1672 14.6623 36.1403 14.696C36.0945 14.7258 35.4206 14.3654 34.6644 13.9282C33.3665 13.1587 33.0156 13.0447 29.9546 12.3942L26.652 11.6727L24.8773 12.125C23.8969 12.3709 22.8627 12.6843 22.562 12.7982C22.2613 12.912 22.3839 12.7998 22.8112 12.5549C23.2384 12.31 24.0797 11.9753 24.6839 11.8272C26.6069 11.3274 27.4664 11.3718 30.6138 12.0801C33.4589 12.7242 33.5682 12.7671 34.8717 13.6958ZM32.2548 13.9297C34.7551 14.8954 36.8139 15.7081 36.8437 15.7539C36.9736 15.979 36.4195 18.5865 36.2495 18.5504C36.0794 18.5142 27.1478 15.1945 27.0803 15.1406C26.964 15.0369 27.4421 12.1368 27.5554 12.1609C27.6499 12.181 29.7694 12.9868 32.2548 13.9297ZM26.187 15.0693C26.0347 15.1357 24.2926 15.7134 22.2996 16.3563L18.69 17.5444L18.781 16.2801C18.8471 15.5042 18.9595 14.9751 19.097 14.8859C19.2115 14.8115 21.0223 14.1891 23.1218 13.5096L26.9175 12.2821L26.6931 13.6168C26.5302 14.5695 26.3811 14.9921 26.187 15.0693ZM37.8921 20.578C37.7278 20.701 37.5296 20.7972 37.454 20.7811C37.1706 20.7209 37.0234 19.09 37.231 18.206L37.4386 17.3219L37.8069 18.8418C38.1179 20.073 38.1293 20.3914 37.8921 20.578ZM47.2408 20.0762C47.5745 20.3644 48.2019 21.1296 48.5916 21.8049L49.3235 23.007L48.5635 21.9371C47.6397 20.6152 46.9345 20.0309 46.0464 19.8422C44.1192 19.4327 42.7946 21.205 43.0245 23.8408C43.0672 24.3831 43.0464 24.8527 43.0006 24.8824C42.9548 24.9122 42.8731 24.4603 42.8384 23.8803C42.677 21.8515 43.3752 19.867 44.4496 19.3646C44.9982 19.106 46.5356 19.4919 47.2408 20.0762ZM31.547 17.3536C34.1417 18.3395 36.295 19.1722 36.3099 19.1951C36.5416 19.7776 36.8579 20.8914 36.8161 20.9023C35.0917 21.5825 34.9474 21.6111 34.7769 21.2984C34.6956 21.1231 34.2469 20.6328 33.7901 20.1803C31.0683 17.4691 25.3344 16.6655 22.6516 18.6034L21.8566 19.1849L21.1353 21.8358C20.3658 24.7135 20.2312 24.8824 19.7713 23.4221C19.4459 22.4445 18.5993 18.157 18.7099 18.1015C18.8851 18.0203 25.2172 16.0086 25.9697 15.8131C26.4336 15.6746 26.8098 15.5769 26.8138 15.558C26.8327 15.562 28.9523 16.3678 31.547 17.3536ZM42.8901 20.1984C41.8277 22.2239 42.1815 25.5773 43.7255 28.2554C44.5049 29.6059 45.9119 31.07 46.5543 31.2065C47.1023 31.3229 46.8451 31.604 45.7719 32.0079C44.1202 32.6245 42.8984 32.1477 41.3261 30.2535C40.4596 29.2202 39.4687 26.5412 39.3216 24.9103C39.1647 23.1392 39.6298 21.3224 40.3612 20.6682C40.7977 20.287 42.6933 19.5444 43.0752 19.6058C43.1508 19.6219 43.0528 19.8973 42.8901 20.1984ZM47.0738 21.0479C49.0774 22.6783 50.1313 26.7333 49.0867 28.8614C48.2438 30.5978 46.1528 29.9363 44.6632 27.4672C43.597 25.7003 43.3301 24.2612 43.7276 22.3907C43.9966 21.1247 44.1484 20.7818 44.5001 20.5208C45.0809 20.111 46.1997 20.329 47.0738 21.0479ZM32.2294 19.5327C32.9885 20.0494 34.3468 21.4637 34.3066 21.6527C34.2906 21.7282 33.5827 21.9925 32.7426 22.2287C27.2827 23.853 24.7416 25.0311 22.9058 26.7936C22.4573 27.2315 22.0477 27.5789 21.991 27.5668C21.9344 27.5548 21.6006 27.2667 21.2331 26.9516L20.5697 26.3564L21.3049 23.1752C22.1393 19.6202 22.2791 19.3339 23.6932 18.6272C25.2028 17.8421 26.4116 17.8225 29.1542 18.4843C30.8427 18.9023 31.8012 19.2245 32.2294 19.5327ZM38.9472 26.1144C39.3755 28.0024 40.3367 29.984 41.3275 31.0832C41.825 31.6234 42.3006 32.0799 42.3762 32.096C42.4518 32.112 42.734 32.2708 42.9934 32.4443L43.4823 32.7457L42.8391 32.9843C41.3696 33.5804 39.4775 32.4477 38.1258 30.1659C36.8039 27.93 36.4061 25.7127 36.924 23.2752L37.2252 21.8581L38.3168 21.1817L39.3896 20.5012L39.0223 22.6942C38.7044 24.5619 38.6945 25.0733 38.9472 26.1144ZM36.4512 22.8983C35.5355 26.2781 36.9043 30.6173 39.5805 32.7065C40.7626 33.6489 40.7482 33.9026 39.4735 34.0464C37.7361 34.2302 35.5427 32.0065 34.5474 29.0698C33.7649 26.7115 33.8518 23.8863 34.7363 22.7906C35.0553 22.4042 36.5943 21.3883 36.8022 21.4325C36.8211 21.4365 36.6805 22.0978 36.4512 22.8983ZM50.0931 28.0286C49.9157 29.235 49.7827 29.582 49.325 30.1561C48.6868 30.9289 48.432 31.013 47.2605 30.7641C46.0135 30.4991 44.923 29.4972 44.0566 27.8123C43.8604 27.4349 44.055 27.6342 44.4608 28.2339C46.9669 31.8668 50.3796 30.6764 50.0078 26.2924C49.8937 25.0635 49.9447 24.9164 50.1419 25.8469C50.2357 26.2421 50.205 27.2229 50.0931 28.0286ZM33.8189 24.4125C33.3693 26.5287 33.3693 26.5287 33.8284 28.3641C34.3854 30.5757 35.6627 32.743 37.0297 33.7444C37.5066 34.1024 37.9038 34.4633 37.8878 34.5389C37.8396 34.7656 36.6582 35.028 36.2047 34.9317C35.1655 34.7108 34.3103 33.9959 33.2675 32.4907C31.6553 30.1339 31.0721 27.5809 31.5901 25.1435C31.9032 23.6697 32.2653 23.1739 33.3775 22.6796C33.8614 22.4467 34.2537 22.2734 34.2537 22.2734C34.2726 22.2774 34.0679 23.241 33.8189 24.4125ZM31.3477 23.8676C31.2188 24.1957 31.0629 24.5575 30.997 24.6818C30.6796 25.2462 30.7738 27.4978 31.1718 29.0635C31.8036 31.6662 33.2916 33.9572 34.9919 34.9702L35.5862 35.3334L32.7479 36.3299C25.7824 38.7204 18.25 40.9905 17.6832 40.87C14.9474 40.2689 12.3491 34.8391 13.1039 31.2868C13.5295 29.284 14.1223 28.8175 17.9828 27.5643L20.2574 26.8035L20.9507 27.4445C21.3479 27.8054 21.7761 28.1136 21.9084 28.1417C22.0407 28.1698 22.5716 27.8087 23.0888 27.3262C24.6056 25.9501 26.2419 25.034 28.8293 24.1027C30.1762 23.6187 31.3439 23.2349 31.4195 23.2509C31.514 23.271 31.4727 23.5585 31.3477 23.8676ZM12.7182 30.5927C12.0005 32.9482 12.5858 35.9557 14.2523 38.5216C14.7731 39.3235 15.5653 40.2422 16.061 40.6043L16.9283 41.2626L16.2795 41.3419C15.9153 41.383 15.2717 41.345 14.8371 41.2526C13.2689 40.9194 11.4837 38.4468 10.8233 35.6997C10.4877 34.3053 10.4776 33.8884 10.726 32.4404L10.9957 30.7994L11.974 30.0988C12.5278 29.7228 12.9901 29.4063 13.0089 29.4103C13.0467 29.4184 12.8965 29.9394 12.7182 30.5927ZM10.0179 31.7765C9.51203 34.1572 9.97781 36.705 11.3472 39.0892C12.0712 40.3292 13.4484 41.7475 14.1097 41.888C14.6954 42.0125 14.1319 42.2482 13.1619 42.2593C11.0438 42.2832 9.08908 40.051 8.22792 36.6688C7.52973 33.9137 7.89863 31.8988 9.27842 30.8887C9.65702 30.5939 10.0614 30.3639 10.1369 30.3799C10.2314 30.4 10.1745 31.0396 10.0179 31.7765ZM7.63647 31.6457C7.38375 32.1844 7.24724 32.8268 7.18159 33.8793C7.00873 36.9232 8.49909 40.5971 10.5416 42.137C11.0374 42.499 11.4158 42.8559 11.4186 42.9355C11.4025 43.0111 11.0263 43.1089 10.5865 43.1339C7.65122 43.3791 4.56045 37.9433 5.38871 33.9525C5.55333 33.1778 5.76424 32.6499 6.04033 32.3729C6.46192 31.9688 7.85777 30.883 7.95224 30.9031C7.99003 30.9111 7.83817 31.2541 7.63647 31.6457ZM4.81289 33.3167C3.95108 36.629 5.31414 40.8089 7.9703 42.9927L9.03219 43.8503L7.95732 44.0761C7.36119 44.1864 6.67861 44.2388 6.41007 44.2015C5.01185 43.9044 3.01489 41.4065 2.32686 39.0683C1.94423 37.8021 1.84123 35.9634 2.0741 34.8675C2.28288 33.885 3.17423 32.85 4.27957 32.295C4.74061 32.077 5.13692 31.8847 5.15582 31.8887C5.15582 31.8887 5.01931 32.5311 4.81289 33.3167Z" fill="#64EF0E"/>
</svg>
