<svg width="47" height="39" viewBox="0 0 47 39" fill="none" xmlns="http://www.w3.org/2000/svg">
<path d="M7.83101 0.352726C5.70438 0.928165 4.00307 1.95395 2.32679 3.63024C0.175134 5.75687 0 6.25725 0 10.2853C0 13.3127 0.0750576 13.738 0.62548 14.9639C1.22594 16.2399 1.25096 16.5401 1.40108 22.7199C1.47613 26.2476 1.65127 29.7253 1.75134 30.4258C2.27675 33.5282 4.60353 36.5305 7.63086 38.0316C8.95687 38.6821 9.68243 38.8573 11.3087 38.9573C12.4095 39.0324 13.8857 38.9573 14.6112 38.7822C15.3368 38.6321 18.4392 37.156 21.9168 35.3045C27.9214 32.1021 27.9214 32.1021 31.1739 31.8019C34.2263 31.5266 34.5265 31.4266 36.528 30.4008C38.6046 29.35 38.6547 29.2999 38.7297 28.3492C38.8548 26.4728 38.9799 26.2976 41.3317 24.7214C44.1589 22.82 45.7601 21.3689 46.1854 20.318C46.3856 19.8427 46.5357 18.5917 46.5357 17.2657C46.5357 11.7615 43.1581 6.1822 38.4045 3.83039C35.8525 2.57943 35.0269 2.67951 30.1481 4.85618C27.7463 5.93201 25.9699 6.5825 25.1693 6.65756C23.8933 6.78266 23.8933 6.78266 23.0927 5.43162C21.3914 2.55441 19.4149 1.12832 16.0873 0.377747C13.8857 -0.122639 9.63239 -0.122639 7.83101 0.352726ZM15.3118 0.753033C16.7128 1.05326 20.0904 2.50438 20.3406 2.90468C20.4407 3.0548 19.8152 2.90468 18.9896 2.55441C16.4126 1.50361 14.2109 1.17836 10.8834 1.30346C8.80676 1.37851 7.40568 1.57867 6.32986 1.92894C4.50346 2.50438 4.27828 2.4043 5.85449 1.72878C8.53155 0.527859 12.3845 0.152573 15.3118 0.753033ZM15.1616 2.10407C17.7887 2.57943 20.5658 3.83039 22.0169 5.20645C23.3679 6.48243 23.2929 7.00783 21.9418 5.88197C19.4649 3.85542 16.1124 2.90468 11.5088 2.90468C7.0304 2.87966 4.50346 3.65526 1.97652 5.75687C1.05081 6.50745 0.825634 6.60752 0.925711 6.20721C1.10085 5.55672 2.82717 4.08059 4.35334 3.30499C5.90453 2.50438 9.18205 1.77882 11.2837 1.7538C12.2094 1.72878 13.9357 1.90392 15.1616 2.10407ZM4.50346 2.60445C4.50346 2.67951 4.45342 2.72955 4.37836 2.72955C4.3033 2.72955 4.25326 2.67951 4.25326 2.60445C4.25326 2.5294 4.3033 2.47935 4.37836 2.47935C4.45342 2.47935 4.50346 2.5294 4.50346 2.60445ZM16.2124 3.88043C17.8137 4.2307 19.6151 5.05634 21.3414 6.1822C22.8175 7.18297 21.9669 7.15795 19.9403 6.15718C17.5885 5.00629 14.9615 4.48089 11.4588 4.48089C7.33063 4.48089 4.22824 5.43162 1.8264 7.38312C1.22594 7.85848 0.750576 8.15871 0.750576 8.0086C0.750576 7.8835 0.675518 7.55825 0.600461 7.30806C0.500384 7.00783 0.525403 6.95779 0.675519 7.15794C0.825634 7.38312 1.20092 7.20799 2.00154 6.50745C5.35411 3.65526 10.7332 2.65449 16.2124 3.88043ZM21.0161 3.35503C21.0161 3.43008 20.9661 3.48013 20.891 3.48013C20.816 3.48013 20.7659 3.43008 20.7659 3.35503C20.7659 3.27997 20.816 3.22993 20.891 3.22993C20.9661 3.22993 21.0161 3.27997 21.0161 3.35503ZM34.6516 4.20568C33.3756 4.78112 32.3498 5.98204 32.1247 7.13293C32.0496 7.60829 32.0246 9.03438 32.0746 10.2853C32.1497 11.8616 32.0996 12.3619 31.9495 11.9616C31.8244 11.6364 31.6993 10.2853 31.6743 8.98435C31.6493 7.10791 31.7494 6.40737 32.1247 5.63177C32.7001 4.50591 33.826 3.73032 34.9018 3.73032C35.6524 3.73032 35.6273 3.75533 34.6516 4.20568ZM39.2051 5.05634C39.6304 5.28151 40.5311 6.00706 41.2066 6.65756C42.2825 7.70837 42.3075 7.73339 41.3567 6.90775C38.0042 3.98051 34.5015 4.43085 33.7759 7.85848C33.5758 8.83423 33.5758 9.60983 33.7509 10.6356C34.0762 12.3619 33.9511 12.6872 33.5508 11.136C32.9503 8.73416 33.3756 5.93201 34.4514 5.13139C35.6774 4.20568 37.5288 4.18066 39.2051 5.05634ZM16.3125 5.45664C17.3633 5.73185 18.8144 6.25726 19.565 6.65756C20.6909 7.233 20.791 7.3581 20.3156 7.43316C19.9903 7.48319 19.2648 7.33308 18.7144 7.10791C16.938 6.40737 14.311 5.98204 11.684 5.98204C7.60584 5.98204 4.40338 6.88273 2.07659 8.6591C0.750576 9.65986 1.00077 8.98435 2.37682 7.75841C3.55273 6.73262 4.82871 6.10714 6.93032 5.50668C9.30714 4.83116 13.7355 4.80614 16.3125 5.45664ZM31.249 6.28227C30.8487 7.70837 30.9988 10.5606 31.5492 12.387C33.2005 17.7661 37.0284 22.0444 40.9564 22.9701C41.9072 23.1953 41.9072 23.1953 41.0315 23.2203C39.5554 23.2703 37.1285 21.9193 35.3021 20.0428C32.2998 16.9405 30.7486 13.6629 30.5735 10.0352C30.4734 7.80844 30.8237 5.48166 31.299 5.48166C31.3991 5.48166 31.3741 5.85695 31.249 6.28227ZM39.2301 6.25726C43.8837 8.58404 46.8359 16.9154 43.7586 19.0921C43.008 19.6175 41.2316 19.6175 40.0808 19.0671C38.5546 18.3665 36.4029 15.9647 35.3772 13.8131C34.5515 12.1117 34.4264 11.5863 34.3263 9.73492C34.2513 7.90852 34.3263 7.48319 34.7517 6.78266C35.7024 5.28151 37.0034 5.13139 39.2301 6.25726ZM30.5234 5.85695C30.5234 5.93201 30.4734 5.98204 30.3983 5.98204C30.3233 5.98204 30.2732 5.93201 30.2732 5.85695C30.2732 5.78189 30.3233 5.73185 30.3983 5.73185C30.4734 5.73185 30.5234 5.78189 30.5234 5.85695ZM29.948 7.65833C28.9472 13.5629 33.876 21.7441 39.6054 23.6456C40.6562 23.9959 40.6562 23.9959 39.5804 23.8958C35.7775 23.5205 31.0238 18.2915 29.6478 12.9624C29.1974 11.2111 29.2224 8.10868 29.7228 6.90775C30.1481 5.88197 30.2232 6.08212 29.948 7.65833ZM17.1382 7.233C19.1647 7.85848 19.49 8.08366 18.8645 8.43392C18.5142 8.60906 17.8637 8.534 16.6378 8.20875C14.311 7.60829 9.18205 7.55825 7.23055 8.13369C3.67782 9.1845 1.87644 10.8358 1.52617 13.3627C1.35104 14.5386 0.975749 14.5886 0.650499 13.5128C-0.100077 10.8858 3.02732 7.90852 7.63086 6.88274C10.1328 6.33231 14.8114 6.50745 17.1382 7.233ZM28.9722 7.25802C28.8221 7.70837 28.7471 9.10944 28.8221 10.6857C28.9222 12.8123 29.0723 13.688 29.5977 14.9389C31.5993 19.7676 35.5273 23.7457 39.08 24.4963C40.1558 24.7214 40.1558 24.7214 38.8548 24.6464C35.6774 24.4712 32.0496 21.4439 29.948 17.2407C28.622 14.5386 28.0215 12.487 28.0215 10.5105C28.0215 9.13446 28.697 6.48243 29.0473 6.48243C29.1724 6.48243 29.1224 6.8327 28.9722 7.25802ZM28.0215 7.3581C28.0215 7.43316 27.9715 7.48319 27.8964 7.48319C27.8214 7.48319 27.7713 7.43316 27.7713 7.3581C27.7713 7.28304 27.8214 7.233 27.8964 7.233C27.9715 7.233 28.0215 7.28304 28.0215 7.3581ZM23.493 8.4089C22.9176 8.93431 22.2921 9.68488 22.117 10.1102C21.7917 10.8358 21.7917 10.7857 21.7667 9.15948C21.7667 7.48319 21.7667 7.48319 23.1428 7.48319C24.5188 7.48319 24.5188 7.48319 23.493 8.4089ZM27.0207 7.60829C27.0207 7.68335 26.9707 7.73339 26.8956 7.73339C26.8206 7.73339 26.7705 7.68335 26.7705 7.60829C26.7705 7.53323 26.8206 7.48319 26.8956 7.48319C26.9707 7.48319 27.0207 7.53323 27.0207 7.60829ZM33.7509 13.4878C35.0769 16.6652 37.2536 19.2172 39.8806 20.6933C40.5561 21.0686 40.6812 21.2187 40.2809 21.0936C39.3052 20.8685 37.0785 19.2672 36.1527 18.1164C34.1262 15.6645 32.6751 12.437 32.525 10.1102C32.3748 8.0086 32.6 7.45817 32.7752 9.48473C32.9002 11.0109 33.1755 12.1368 33.7509 13.4878ZM27.6712 10.6857C27.6712 13.2126 27.7713 13.8381 28.3217 15.2892C30.1231 20.0428 34.0011 24.146 37.5788 25.0967C38.7047 25.422 38.7798 25.472 38.1042 25.472C34.2513 25.5471 29.0723 20.318 27.396 14.6137C26.8456 12.7622 26.7705 9.65986 27.2459 8.534C27.421 8.10867 27.5962 7.73339 27.6212 7.73339C27.6212 7.73339 27.6462 9.0594 27.6712 10.6857ZM20.9661 17.2157C20.891 18.8169 20.891 18.8169 19.3398 19.6926C17.7636 20.5432 17.7636 20.5432 17.7636 15.1391C17.7636 9.75994 17.7636 9.75994 19.2147 8.90929C20.6408 8.08365 20.6408 8.08365 20.841 11.8365C20.9411 13.9131 20.9911 16.34 20.9661 17.2157ZM26.4953 8.78419C25.8949 10.9609 26.5954 14.9639 28.1216 18.1164C29.7228 21.3939 32.8002 24.4212 35.6524 25.5721C36.478 25.8973 36.5531 25.9724 36.0276 25.9724C35.127 25.9974 33.3756 25.1467 31.8494 23.9458C29.4726 22.1194 26.9457 18.1914 26.1451 15.064C25.6697 13.2376 25.6697 9.98511 26.12 8.85925C26.5954 7.75841 26.8206 7.73339 26.4953 8.78419ZM16.3375 8.73415C17.2633 9.00937 17.2632 9.00936 17.2632 10.8358C17.2632 12.6872 17.2632 12.6872 14.4361 14.4635C10.6332 16.8154 8.90684 18.1914 7.18051 20.1929C5.52924 22.0944 4.35334 23.9458 4.62855 24.196C4.80369 24.3962 5.05388 24.0959 6.75518 21.7441C8.18128 19.7426 10.8834 17.4158 14.1859 15.3392C15.587 14.4636 16.7879 13.738 16.8379 13.738C16.913 13.738 16.988 15.4643 17.0631 17.591C17.1882 21.4689 17.1882 21.4689 19.1397 23.9208C20.2155 25.2718 22.2171 27.6987 23.5931 29.325C24.9441 30.9512 26.02 32.3273 25.9699 32.3773C25.7948 32.5524 19.0396 36.1302 16.913 37.156C14.7113 38.2318 14.6112 38.2568 12.1593 38.2568C9.88258 38.2568 9.48228 38.1818 8.05618 37.5062C6.15472 36.6055 4.07813 34.604 3.10238 32.7276C2.37682 31.3765 2.37682 31.3765 2.30177 21.9193C2.22671 12.7372 2.25173 12.437 2.72709 11.6364C3.40261 10.5856 4.92878 9.55979 7.00538 8.80921C8.50653 8.25879 8.90684 8.20875 12.0092 8.33385C13.8606 8.38388 15.8121 8.58404 16.3375 8.73415ZM25.7698 8.35887C25.7698 8.43392 25.7197 8.48396 25.6447 8.48396C25.5696 8.48396 25.5196 8.43392 25.5196 8.35887C25.5196 8.28381 25.5696 8.23377 25.6447 8.23377C25.7197 8.23377 25.7698 8.28381 25.7698 8.35887ZM24.2686 9.60983C23.8683 10.6606 23.9434 14.1633 24.3937 15.8646C24.6189 16.6652 25.2444 18.2414 25.7948 19.3423C27.6712 23.0952 29.6728 25.1467 33.0253 26.723C34.4264 27.3985 34.5515 27.4986 33.901 27.4986C31.9996 27.4986 28.7721 25.0967 26.6455 22.1194C23.5931 17.8662 22.5423 13.1125 23.9184 9.78496C24.3937 8.63408 24.694 8.48396 24.2686 9.60983ZM25.2444 10.0852C24.9692 11.5363 25.2944 14.5386 25.8699 16.2149C27.421 20.5432 30.6235 24.4962 33.851 26.0224C35.3271 26.723 35.3521 26.748 34.4014 26.6229C30.8737 26.0725 26.6705 21.1937 25.0192 15.7645C24.5689 14.3134 24.4688 13.5378 24.5689 11.9116C24.6189 10.7857 24.819 9.58481 24.9942 9.28458C25.4445 8.43392 25.5196 8.68411 25.2444 10.0852ZM43.4083 8.98435C43.4834 9.10944 43.5084 9.23454 43.4333 9.23454C43.3583 9.23454 43.2332 9.10944 43.1581 8.98435C43.0831 8.83423 43.058 8.73415 43.1331 8.73415C43.2082 8.73415 43.3333 8.83423 43.4083 8.98435ZM23.2679 9.60983C23.2679 9.68488 23.2178 9.73492 23.1428 9.73492C23.0677 9.73492 23.0177 9.68488 23.0177 9.60983C23.0177 9.53477 23.0677 9.48473 23.1428 9.48473C23.2178 9.48473 23.2679 9.53477 23.2679 9.60983ZM44.0338 9.98511C44.1839 10.2603 44.234 10.4855 44.1839 10.4855C44.1089 10.4855 43.9337 10.2603 43.7836 9.98511C43.6335 9.7099 43.5834 9.48473 43.6335 9.48473C43.7085 9.48473 43.8837 9.7099 44.0338 9.98511ZM22.8175 11.8365C22.5173 16.4401 24.3437 20.9685 27.9464 24.5963C29.6978 26.3477 31.249 27.4485 32.625 27.9239C33.6508 28.2491 33.6508 28.2491 32.575 28.124C31.0238 27.9239 29.7729 27.2233 27.5461 25.2468C25.8949 23.7957 25.3945 23.1702 24.4438 21.3188C22.6924 17.9162 22.2671 16.39 22.2671 13.6379C22.2671 11.7365 22.5673 9.98511 22.8926 9.98511C22.9176 9.98511 22.8926 10.8107 22.8175 11.8365ZM44.5342 10.8608C44.5342 10.9358 44.4841 10.9859 44.4091 10.9859C44.334 10.9859 44.284 10.9358 44.284 10.8608C44.284 10.7857 44.334 10.7357 44.4091 10.7357C44.4841 10.7357 44.5342 10.7857 44.5342 10.8608ZM44.7093 11.6614C44.6092 11.7365 44.5342 11.6614 44.5342 11.4863C44.5342 11.3111 44.6092 11.2361 44.7093 11.3111C44.7844 11.4112 44.7844 11.5613 44.7093 11.6614ZM45.0346 12.1117C45.0346 12.1868 44.9845 12.2368 44.9095 12.2368C44.8344 12.2368 44.7844 12.1868 44.7844 12.1117C44.7844 12.0367 44.8344 11.9867 44.9095 11.9867C44.9845 11.9867 45.0346 12.0367 45.0346 12.1117ZM34.2012 12.9124C34.1012 12.9874 34.0261 12.9124 34.0261 12.7372C34.0261 12.5621 34.1012 12.487 34.2012 12.5621C34.2763 12.6622 34.2763 12.8123 34.2012 12.9124ZM32.4499 13.1626C32.3498 13.2376 32.2748 13.1626 32.2748 12.9874C32.2748 12.8123 32.3498 12.7372 32.4499 12.8123C32.525 12.9124 32.525 13.0625 32.4499 13.1626ZM45.2848 12.8623C45.2848 12.9374 45.2347 12.9874 45.1597 12.9874C45.0846 12.9874 45.0346 12.9374 45.0346 12.8623C45.0346 12.7873 45.0846 12.7372 45.1597 12.7372C45.2347 12.7372 45.2848 12.7873 45.2848 12.8623ZM34.5265 13.3627C34.5265 13.4378 34.4765 13.4878 34.4014 13.4878C34.3263 13.4878 34.2763 13.4378 34.2763 13.3627C34.2763 13.2876 34.3263 13.2376 34.4014 13.2376C34.4765 13.2376 34.5265 13.2876 34.5265 13.3627ZM32.7752 13.6129C32.7752 13.688 32.7251 13.738 32.6501 13.738C32.575 13.738 32.525 13.688 32.525 13.6129C32.525 13.5378 32.575 13.4878 32.6501 13.4878C32.7251 13.4878 32.7752 13.5378 32.7752 13.6129ZM45.4599 14.0382C45.3848 14.2384 45.3098 14.1633 45.3098 13.8881C45.2848 13.6129 45.3598 13.4628 45.4349 13.5629C45.5099 13.6379 45.5349 13.8631 45.4599 14.0382ZM34.7767 13.8631C34.7767 13.9381 34.7267 13.9882 34.6516 13.9882C34.5765 13.9882 34.5265 13.9381 34.5265 13.8631C34.5265 13.788 34.5765 13.738 34.6516 13.738C34.7267 13.738 34.7767 13.788 34.7767 13.8631ZM33.0253 14.3635C33.0253 14.4385 32.9753 14.4886 32.9002 14.4886C32.8252 14.4886 32.7752 14.4385 32.7752 14.3635C32.7752 14.2884 32.8252 14.2384 32.9002 14.2384C32.9753 14.2384 33.0253 14.2884 33.0253 14.3635ZM35.0269 14.3635C35.0269 14.4385 34.9768 14.4886 34.9018 14.4886C34.8267 14.4886 34.7767 14.4385 34.7767 14.3635C34.7767 14.2884 34.8267 14.2384 34.9018 14.2384C34.9768 14.2384 35.0269 14.2884 35.0269 14.3635ZM45.5099 18.7919C44.334 21.6691 40.6562 21.3438 37.5288 18.0663C36.1527 16.6402 36.1527 16.6402 37.5788 17.9412C39.2551 19.4924 40.7563 20.218 42.1574 20.243C44.284 20.243 45.5099 18.7168 45.585 15.9397C45.635 14.3635 45.635 14.3635 45.7101 16.2149C45.7601 17.2907 45.6851 18.3916 45.5099 18.7919ZM35.2771 14.8639C35.2771 14.9389 35.227 14.989 35.152 14.989C35.0769 14.989 35.0269 14.9389 35.0269 14.8639C35.0269 14.7888 35.0769 14.7388 35.152 14.7388C35.227 14.7388 35.2771 14.7888 35.2771 14.8639ZM35.9026 15.8896C36.1277 16.2649 36.2028 16.4651 36.0527 16.39C35.7775 16.2149 35.177 15.2391 35.3521 15.2391C35.4272 15.2391 35.6524 15.5394 35.9026 15.8896ZM22.7925 19.2422C23.493 21.1187 23.493 21.1187 22.6424 20.1179C21.8918 19.2672 21.7667 18.942 21.7917 17.8662C21.7917 17.1656 21.8668 16.7903 21.9418 16.9905C22.0169 17.1906 22.3922 18.2164 22.7925 19.2422ZM39.055 21.2688C39.8306 21.6691 40.6312 21.8442 41.707 21.8442C43.058 21.8692 43.3833 21.7692 44.4341 21.0186C45.4849 20.293 45.585 20.268 45.2597 20.7684C43.5834 23.3203 40.0808 22.9701 37.0034 19.9678C35.9776 18.967 35.9276 18.8919 36.7782 19.6675C37.4287 20.218 38.4545 20.9435 39.055 21.2688ZM23.3179 21.9193C24.4438 23.2703 25.5196 24.5963 25.6697 24.8715C25.7948 25.1467 26.095 25.3469 26.3202 25.3469C26.5454 25.3219 26.6705 25.447 26.6204 25.5971C26.5454 25.7722 27.1208 26.6979 27.8964 27.6487C28.647 28.5994 29.2725 29.4501 29.2725 29.5501C29.2725 29.6502 28.5719 30.1506 27.7213 30.651C26.1451 31.5517 26.1451 31.5517 25.1943 30.4508C24.6689 29.8253 22.8425 27.5486 21.1412 25.3469C18.0138 21.3689 18.0138 21.3688 18.5642 20.9185C19.1897 20.4431 20.791 19.5174 21.0662 19.4924C21.1412 19.4924 22.167 20.5933 23.3179 21.9193ZM23.7682 21.3688C23.7682 21.4439 23.7182 21.4939 23.6431 21.4939C23.5681 21.4939 23.518 21.4439 23.518 21.3688C23.518 21.2938 23.5681 21.2438 23.6431 21.2438C23.7182 21.2438 23.7682 21.2938 23.7682 21.3688ZM30.6485 28.1741C31.3491 28.4493 32.2998 28.8246 32.7752 28.9497C33.5508 29.1748 33.4257 29.1999 31.7994 29.1748C29.948 29.1248 29.948 29.1248 28.5469 27.5236C27.1458 25.9223 27.1458 25.9223 28.2717 26.773C28.8972 27.2484 29.973 27.8738 30.6485 28.1741ZM38.2794 27.7237C38.2794 28.1491 38.2043 28.5243 38.1042 28.5744C37.9791 28.6494 37.1285 28.7745 36.1527 28.8496C34.4014 29.0247 34.4014 29.0247 35.6524 28.4243C36.3529 28.074 37.1285 27.6236 37.4037 27.3985C38.1293 26.8481 38.2794 26.8981 38.2794 27.7237ZM35.8775 30.1256C34.8517 30.726 33.1755 31.0763 29.5977 31.3765C28.5969 31.4516 27.7713 31.4516 27.7713 31.3765C27.7713 31.3015 28.3718 30.9512 29.1223 30.6009C30.4484 30.0005 32.8752 29.6002 35.5273 29.5251C36.9033 29.5001 36.9033 29.5001 35.8775 30.1256Z" fill="#64EF0E"/>
</svg>
