<svg width="22" height="22" viewBox="0 0 22 22" fill="none" xmlns="http://www.w3.org/2000/svg">
<path d="M17.875 2.75H4.125C3.76046 2.75042 3.41096 2.89542 3.15319 3.15319C2.89542 3.41096 2.75042 3.76046 2.75 4.125V17.875C2.75042 18.2395 2.89542 18.589 3.15319 18.8468C3.41096 19.1046 3.76046 19.2496 4.125 19.25H17.875C18.2395 19.2496 18.589 19.1046 18.8468 18.8468C19.1046 18.589 19.2496 18.2395 19.25 17.875V4.125C19.2496 3.76046 19.1046 3.41096 18.8468 3.15319C18.589 2.89542 18.2395 2.75042 17.875 2.75ZM8.25 15.1251C8.25 15.3074 8.17757 15.4823 8.04864 15.6112C7.9197 15.7401 7.74484 15.8126 7.5625 15.8126C7.38016 15.8126 7.2053 15.7401 7.07636 15.6112C6.94743 15.4823 6.875 15.3074 6.875 15.1251V9.62508C6.875 9.44274 6.94743 9.26788 7.07636 9.13894C7.2053 9.01001 7.38016 8.93758 7.5625 8.93758C7.74484 8.93758 7.9197 9.01001 8.04864 9.13894C8.17757 9.26788 8.25 9.44274 8.25 9.62508V15.1251ZM7.5625 7.90633C7.35854 7.90633 7.15916 7.84585 6.98957 7.73253C6.81998 7.61922 6.6878 7.45816 6.60975 7.26972C6.5317 7.08129 6.51127 6.87394 6.55106 6.67389C6.59086 6.47385 6.68907 6.2901 6.8333 6.14588C6.97752 6.00165 7.16127 5.90344 7.36131 5.86365C7.56136 5.82385 7.76871 5.84428 7.95714 5.92233C8.14558 6.00038 8.30664 6.13256 8.41995 6.30215C8.53327 6.47174 8.59375 6.67112 8.59375 6.87508C8.59375 7.14859 8.4851 7.41089 8.2917 7.60428C8.09831 7.79768 7.836 7.90633 7.5625 7.90633ZM15.8125 15.1251C15.8125 15.3074 15.7401 15.4823 15.6111 15.6112C15.4822 15.7401 15.3073 15.8126 15.125 15.8126C14.9427 15.8126 14.7678 15.7401 14.6389 15.6112C14.5099 15.4823 14.4375 15.3074 14.4375 15.1251V12.0313C14.4375 11.5755 14.2564 11.1383 13.9341 10.816C13.6118 10.4937 13.1746 10.3126 12.7188 10.3126C12.2629 10.3126 11.8257 10.4937 11.5034 10.816C11.1811 11.1383 11 11.5755 11 12.0313V15.1251C11 15.3074 10.9276 15.4823 10.7986 15.6112C10.6697 15.7401 10.4948 15.8126 10.3125 15.8126C10.1302 15.8126 9.9553 15.7401 9.82636 15.6112C9.69743 15.4823 9.625 15.3074 9.625 15.1251V9.62508C9.62494 9.45608 9.68715 9.29299 9.79975 9.16696C9.91234 9.04093 10.0674 8.96081 10.2354 8.9419C10.4033 8.92299 10.5723 8.96662 10.7101 9.06445C10.8479 9.16228 10.9448 9.30746 10.9824 9.47224C11.4473 9.15627 11.9896 8.97304 12.5509 8.94223C13.1122 8.91142 13.6713 9.03421 14.168 9.29738C14.6647 9.56056 15.0803 9.95417 15.3701 10.4359C15.6598 10.9176 15.8128 11.4692 15.8125 12.0313V15.1251Z" fill="#0D0E10"/>
</svg>
