<?xml version="1.0" encoding="utf-8"?>
<!DOCTYPE svg PUBLIC "-//W3C//DTD SVG 20010904//EN" "http://www.w3.org/TR/2001/REC-SVG-20010904/DTD/svg10.dtd">
<svg version="1.0" xmlns="http://www.w3.org/2000/svg" width="193px" height="193px" viewBox="0 0 193 193" preserveAspectRatio="xMidYMid meet">
 <g fill="#ffffff">
  <path d="M76.5 159.4 c-2.2 -0.8 -5.1 -1.9 -6.5 -2.3 -4.9 -1.6 -12.9 -6.1 -19.1 -10.9 -3.5 -2.6 -8.1 -5.8 -10.2 -7.1 -6.7 -4.1 -6.7 -4.2 -6.7 -27.3 0 -23.7 -0.2 -22.7 9.6 -44.1 l5.8 -12.8 5.5 -1.5 c3.1 -0.9 8.4 -2.5 11.9 -3.6 9.9 -3.2 20.8 -4.7 33.2 -4.8 17.6 0 22.8 2.1 48.3 19.2 5.1 3.5 8.7 6.7 9.1 8 0.3 1.3 0.6 11.2 0.6 22.1 0 16.7 -0.3 20.6 -1.9 25 -2.2 6.5 -11.8 27.6 -13.5 29.9 -0.7 1 -7 3.5 -14.7 5.9 -11.5 3.5 -15.3 4.2 -27.4 4.9 -18.6 1.2 -19.4 1.2 -24 -0.6z m36.8 -6 l25.7 -3.9 0.1 -10.5 c0.1 -15.8 -0.2 -29.4 -0.6 -29.8 -0.2 -0.2 -7.9 0.8 -17.2 2.3 -32.3 5 -37 6.3 -39.1 11.1 -1.1 2.3 -1.4 8.8 -1.3 25.8 l0.1 9.9 3.3 -0.6 c1.7 -0.2 14.8 -2.2 29 -4.3z m-35.8 -31.1 c-0.4 -2.1 -2.1 -4.5 -5 -7 -4.6 -4 -35.2 -21.9 -36.1 -21.1 -0.2 0.3 -0.4 7.8 -0.5 16.7 0 23.1 -0.9 21.8 25.6 37 l16 9.2 0.3 -15.8 c0.2 -8.7 0 -17.2 -0.3 -19z m77 -5.9 c1.2 -3.9 1.5 -8.9 1.3 -21.4 l-0.3 -16.3 -6 12.9 -6 12.9 -0.2 18.5 -0.2 18.5 4.9 -10 c2.7 -5.5 5.7 -12.3 6.5 -15.1z m-67.9 -2.1 l4.9 -0.7 -9.5 -1.7 c-5.2 -0.9 -9.7 -1.5 -9.8 -1.3 -0.5 0.4 7 4.3 8.4 4.4 0.6 0 3.3 -0.3 6 -0.7z m52.4 -9.2 c1.3 -1 3 -3.2 3.7 -5 l1.4 -3.3 -3.4 2.6 c-1.9 1.5 -5.8 4 -8.8 5.6 l-5.4 3 5 -0.6 c2.8 -0.3 6.1 -1.4 7.5 -2.3z m-22.6 -0.1 c13.2 -3.3 25.6 -11.2 29 -18.4 1 -2.1 1.5 -5.6 1.5 -9.3 l-0.2 -5.8 -0.6 5.5 c-1.1 9.6 -6.8 16.2 -19.3 22 -10.1 4.8 -19.2 6.3 -34.3 5.7 -10.7 -0.3 -14.4 -0.9 -21 -3.1 -15.9 -5.4 -24.3 -13 -26.5 -23.9 l-0.8 -4.2 -0.1 4.6 c-0.3 10.9 12.6 22.3 30.2 26.9 10.3 2.7 31.6 2.7 42.1 0z m-3.9 -4.1 c7.6 -1.4 18.8 -6.6 24.1 -11.2 13.1 -11.5 8.6 -26.3 -10.6 -35.1 -20.7 -9.4 -49.2 -8 -66.7 3.3 -13.4 8.6 -15.1 21.7 -4.2 31.5 12.4 11.3 33.9 15.6 57.4 11.5z m-67.1 -7.8 c-1.4 -2.2 -2.8 -5.8 -3.1 -8 -0.7 -4.8 -1.7 -5.2 -3.1 -1.3 -0.5 1.5 -1.3 3.5 -1.7 4.4 -0.5 1.2 0.7 2.5 4.7 5.2 2.9 2 5.4 3.6 5.6 3.6 0.1 0 -0.9 -1.8 -2.4 -3.9z m109.1 -21.1 c-0.3 -0.6 -1.9 -1.7 -3.5 -2.5 l-3 -1.5 1 2.5 c0.6 1.5 1 5 1.1 7.8 l0.1 5.2 2.4 -5.2 c1.4 -2.9 2.2 -5.7 1.9 -6.3z"/>
 </g>
</svg>