<?xml version="1.0" encoding="utf-8"?>
<!DOCTYPE svg PUBLIC "-//W3C//DTD SVG 20010904//EN" "http://www.w3.org/TR/2001/REC-SVG-20010904/DTD/svg10.dtd">
<svg version="1.0" xmlns="http://www.w3.org/2000/svg" width="210px" height="210px" viewBox="0 0 210 210" preserveAspectRatio="xMidYMid meet">
 <g fill="#ffffff">
  <path d="M46.3 184.5 c-8.5 -2.3 -15.3 -6.4 -22 -13.1 -8.6 -8.5 -9.3 -10.5 -9.3 -26.6 0 -12.1 0.3 -13.8 2.5 -18.7 2.4 -5.1 2.5 -6.3 3.1 -31 0.3 -14.1 1 -28 1.4 -30.8 2.1 -12.4 11.4 -24.4 23.5 -30.4 5.3 -2.6 8.2 -3.3 14.7 -3.7 4.4 -0.3 10.3 0 13.2 0.7 2.9 0.6 15.3 6.5 29.2 13.9 24 12.8 24 12.8 37 14 12.2 1.1 13.4 1.5 21.4 5.6 8.3 4.2 8.5 4.4 8.8 8.2 0.5 7.5 1 8.2 10.4 14.5 11.3 7.6 17.7 13.4 19.4 17.6 0.8 1.9 1.4 6.9 1.4 12.2 0 22 -13.5 44.3 -32.5 53.7 -10.2 5 -13.5 4.6 -33 -4.1 -9.6 -4.3 -16.7 -6.9 -19.9 -7.2 -5.1 -0.5 -5.1 -0.5 -8.3 4.9 -6.8 11.5 -14.7 17.2 -28 20.2 -8.8 2 -25.8 2 -33 0.1z m29.9 -1.6 c5.6 -1.2 19.1 -7 20.1 -8.6 0.4 -0.6 -2.1 0 -5.4 1.4 -10.3 4.2 -19.1 5.5 -32.4 5 -8.3 -0.3 -13.9 -1.1 -18.2 -2.5 -7.3 -2.3 -8.2 -1.9 -1.9 0.8 10.7 4.8 26.1 6.3 37.8 3.9z m-0.6 -5.4 c10.5 -1.9 21.6 -6.9 27.4 -12.4 5.4 -5.1 5.1 -7.2 -0.3 -2.7 -9.9 8.1 -23.3 11.9 -41.7 11.9 -17.9 0.1 -28 -3 -38.1 -11.4 -3.7 -3 -4.6 -3.4 -4.2 -1.8 0.7 2.6 7.6 8.5 13.7 11.6 6.2 3.2 19.3 6.1 27.7 6.2 3.7 0.1 10.6 -0.6 15.5 -1.4z m-42.6 -2 c0 -0.3 -0.2 -0.5 -0.5 -0.5 -0.3 0 -0.5 0.2 -0.5 0.5 0 0.3 0.2 0.5 0.5 0.5 0.3 0 0.5 -0.2 0.5 -0.5z m46.8 -5.1 c6.4 -1.4 13.6 -4.7 20.5 -9.2 5.9 -4 2.5 -3.9 -5.6 0.1 -9.4 4.6 -19.9 6.7 -33.9 6.7 -16.5 0 -28.9 -3.8 -38.5 -11.6 -2.4 -1.9 -4.3 -3.1 -4.3 -2.5 0 0.5 -0.3 1.8 -0.6 2.8 -0.4 1.2 -0.3 1.4 0.3 0.6 0.6 -0.9 2.1 -0.2 5.3 2.6 13.4 11.4 34.9 15.4 56.8 10.5z m19.2 2.1 c0 -0.3 -0.2 -0.5 -0.5 -0.5 -0.3 0 -0.5 0.2 -0.5 0.5 0 0.3 0.2 0.5 0.5 0.5 0.3 0 0.5 -0.2 0.5 -0.5z m54.5 -3.4 c-5.1 -2.3 -9.2 -7.1 -10.1 -11.7 -0.3 -1.9 -0.4 -7.6 -0.2 -12.6 0.3 -6.3 0.1 -8.3 -0.5 -6.7 -0.5 1.3 -1 6.7 -1.1 11.9 -0.1 7.5 0.3 10.3 1.8 13.4 2.3 4.5 6.8 7.6 11.1 7.6 3 0 2.9 -0.1 -1 -1.9z m18.2 -3.4 c1.7 -0.9 5.3 -3.8 8 -6.4 4.3 -4.2 4.4 -4.3 0.6 -1 -13.4 11.7 -27.4 9.9 -30.3 -3.8 -0.8 -3.9 -0.8 -7 -0.1 -11.1 1.3 -6.9 0.8 -8.2 -0.8 -2 -2.4 9.6 -0.7 20.8 3.6 24 4.9 3.7 12.3 3.8 19 0.3z m-91.5 -1.6 c4.2 -1.1 10 -3.2 13 -4.8 4.5 -2.3 4.9 -2.8 3 -3.1 -1.3 -0.2 -4.2 0.4 -6.4 1.3 -7.1 2.8 -17.6 4.5 -28.1 4.5 -16.3 0 -29.1 -3.6 -38.4 -10.7 -5.3 -4 -4.3 -1.3 1.2 3.6 4.7 4.1 9.8 6.6 18.2 9 9.5 2.7 27.2 2.8 37.5 0.2z m59.7 -3.3 c-1.6 -5.7 -1 -17.1 1.2 -24.4 6.6 -21.5 21.9 -38.6 37.6 -42.3 3.8 -0.9 3.8 -0.9 0.3 -1 -5.9 -0.2 -15.6 5.2 -22.9 12.7 -12 12.4 -18.2 25.5 -18.9 40 -0.4 8.9 1 18.2 2.9 18.2 0.4 0 0.3 -1.5 -0.2 -3.2z m31.9 0.1 c18.6 -9.3 30.4 -42.6 18.1 -51.3 -3 -2.1 -10.1 -2.1 -14.7 0.1 -6.1 2.8 -14.7 12.4 -18.8 21 -3.3 6.8 -3.8 8.9 -4.2 16.3 -0.3 7.3 0 9 1.7 11.8 3.8 6 9 6.6 17.9 2.1z m-34.8 1.6 c0 -0.3 -0.2 -0.5 -0.5 -0.5 -0.3 0 -0.5 0.2 -0.5 0.5 0 0.3 0.2 0.5 0.5 0.5 0.3 0 0.5 -0.2 0.5 -0.5z m-2.3 -7.2 c-4 -23.6 15.7 -56.3 38.6 -63.9 4.2 -1.4 4.2 -1.4 -0.1 -1 -15.2 1.5 -34.2 22.4 -39.7 43.7 -1.8 7 -1.7 19.4 0.3 24.2 1.7 4.1 2 3.3 0.9 -3z m-51.2 1.7 c8.1 -2.5 9.4 -3.4 6.9 -4.8 -1.4 -0.7 -4 -0.4 -8.9 0.9 -9.3 2.4 -29.8 2.6 -37.6 0.3 -14.2 -4.2 -21.4 -10.8 -22.8 -20.9 -0.7 -4.7 -2.2 -4.9 -3.5 -0.6 -3 10.5 9.5 22.4 27.9 26.5 10 2.2 28.7 1.5 38 -1.4z m47.3 -0.1 c-0.6 -1.8 -0.9 -7.4 -0.6 -13.7 0.4 -8.5 1 -12 3.1 -17 8 -19.3 23.7 -35.2 37.9 -38.2 4.3 -0.9 4.3 -0.9 -0.9 -0.6 -12.7 0.7 -27.2 12.8 -35.6 29.6 -5.3 10.8 -7.7 19 -7.7 26.9 0 5.5 2.7 16.1 4.1 16.1 0.5 0 0.3 -1.4 -0.3 -3.1z m-3.8 -0.4 c0 -0.3 -0.2 -0.5 -0.5 -0.5 -0.3 0 -0.5 0.2 -0.5 0.5 0 0.3 0.2 0.5 0.5 0.5 0.3 0 0.5 -0.2 0.5 -0.5z m-18.1 -4.2 c-2.3 -2.1 -4.8 -5.1 -5.5 -6.8 -1.3 -2.9 -1.3 -2.7 -1.4 3.8 0 6.7 0 6.7 5.5 6.7 5.5 0 5.5 0 1.4 -3.7z m14.1 3.2 c0 -0.3 -0.2 -0.5 -0.5 -0.5 -0.3 0 -0.5 0.2 -0.5 0.5 0 0.3 0.2 0.5 0.5 0.5 0.3 0 0.5 -0.2 0.5 -0.5z m26.9 -23.5 c5.3 -12.7 14 -22.9 24.5 -28.8 2.7 -1.5 3.2 -2.1 1.6 -1.6 -3.9 0.9 -12.8 7.3 -16.5 11.9 -8.1 9.8 -13.9 22.7 -14.5 32 -0.6 8.4 0.3 10.6 1 2.5 0.5 -6.1 1.6 -10.6 3.9 -16z m-24.3 11.2 c0 -10.1 0.4 -12.6 2.6 -18.4 7.2 -19 22.7 -35.4 37 -39.2 4.5 -1.3 4.8 -1.5 2.1 -1.5 -15.4 -0.3 -36.1 20.6 -42.8 43.4 -2.2 7.4 -2.5 19.8 -0.6 24.3 0.7 1.7 1.4 3.2 1.5 3.2 0 0 0.1 -5.3 0.2 -11.8z m-26.8 -26.1 c-0.3 -6.4 -0.3 -6.4 -6.5 -9.9 -6.3 -3.4 -6.3 -3.4 -6.3 18.2 0 21.5 0 21.5 5.8 24.9 5.7 3.3 5.7 3.3 6.5 -11.7 0.4 -8.3 0.6 -18 0.5 -21.5z m22.1 33.7 c-2.4 -8.7 0.4 -24.7 6.5 -37.3 6.4 -13.1 18.7 -25.2 30.1 -29.8 3.3 -1.3 3.6 -1.6 1.5 -1.6 -3.6 -0.1 -10.6 3.3 -16.7 8.1 -9.5 7.3 -19.6 23 -22.8 35.5 -1.9 7.3 -1.9 20.3 -0.1 24.8 1.9 4.4 2.8 4.5 1.5 0.3z m-40.6 0.2 c3.7 -1.1 3.7 -1.1 3.7 -8.4 0 -7.4 0 -7.4 -11.3 -14.5 -15.2 -9.4 -22.1 -14.9 -29 -22.9 -6.6 -7.6 -11.3 -15 -10.2 -16 0.7 -0.8 1.7 0.4 8.5 9.8 5.7 8 16.5 17.3 29.7 25.6 5.6 3.5 10.4 6.4 10.6 6.4 0.3 0 0.6 -6.9 0.9 -15.4 0.5 -15.5 0.5 -15.5 8.3 -25.3 4.3 -5.4 12.3 -15.1 17.8 -21.6 5.4 -6.5 9.7 -12 9.5 -12.2 -0.7 -0.7 -27.7 -15 -36.2 -19.1 -8.8 -4.3 -9.2 -4.4 -19 -4.4 -9.1 0 -10.7 0.3 -16.4 3 -7.6 3.6 -15.9 11.6 -19.8 19.1 -2.9 5.4 -2.9 5.4 -3.2 43.2 -0.3 36.7 -0.2 37.9 1.7 41.1 2.7 4.2 8.8 8.3 17.1 11.3 6 2.2 7.6 2.4 20 1.9 7.4 -0.2 15.2 -1 17.3 -1.6z m37.7 1.5 c0 -0.3 -0.2 -0.5 -0.5 -0.5 -0.3 0 -0.5 0.2 -0.5 0.5 0 0.3 0.2 0.5 0.5 0.5 0.3 0 0.5 -0.2 0.5 -0.5z m-6 -5 c-1.6 -4.2 -1.3 -18.2 0.5 -25 0.9 -3.2 3.4 -9.5 5.6 -13.9 7.5 -15 15.5 -23.2 28.9 -29.5 5.6 -2.7 6.1 -3.1 3.5 -3.1 -7.6 0 -20.5 9.6 -29 21.5 -12.2 17 -16.4 36 -10.9 49.3 1.9 4.6 3.1 5.2 1.4 0.7z m3.9 -1.9 c-1.1 -5.8 0.2 -17.8 2.5 -24.5 6.2 -17.3 19 -33.1 31.9 -39.2 5.9 -2.8 6 -2.9 2.2 -2.4 -14.1 2.2 -30.9 21.7 -37.5 43.4 -1.8 5.8 -2.2 8.9 -1.8 15.4 0.2 4.5 1 9.3 1.7 10.5 1.8 3.4 2.1 2.4 1 -3.2z m72.6 4.4 c0.3 -0.5 0.4 -1 0.1 -1 -0.3 0 -0.8 0.5 -1.1 1 -0.3 0.6 -0.4 1 -0.1 1 0.3 0 0.8 -0.4 1.1 -1z m-80.5 -2.5 c0 -0.3 -0.2 -0.5 -0.5 -0.5 -0.3 0 -0.5 0.2 -0.5 0.5 0 0.3 0.2 0.5 0.5 0.5 0.3 0 0.5 -0.2 0.5 -0.5z m83 -1.5 c0.6 -1.1 0.8 -2 0.6 -2 -0.3 0 -1 0.9 -1.6 2 -0.6 1.1 -0.8 2 -0.6 2 0.3 0 1 -0.9 1.6 -2z m-84.8 -7.4 c-1.2 -18.4 6.1 -36.5 20.5 -51 7 -7 13.2 -11.4 18.7 -13.3 4.1 -1.3 4.1 -1.3 -0.2 -0.8 -6.2 0.8 -11.2 3.6 -20.1 11.5 -6.6 5.8 -8.6 8.3 -12.4 15.7 -7 13.6 -8.7 19.7 -8.7 30.7 0 7.6 1.2 14.6 2.5 14.6 0.1 0 0 -3.3 -0.3 -7.4z m86.8 3.9 c0 -0.3 -0.2 -0.5 -0.5 -0.5 -0.3 0 -0.5 0.2 -0.5 0.5 0 0.3 0.2 0.5 0.5 0.5 0.3 0 0.5 -0.2 0.5 -0.5z m0.7 -3.2 c-0.4 -0.3 -0.7 0 -0.7 0.7 0 0.7 0.3 1 0.7 0.7 0.3 -0.4 0.3 -1 0 -1.4z m1.3 -1.8 c0 -0.3 -0.2 -0.5 -0.5 -0.5 -0.3 0 -0.5 0.2 -0.5 0.5 0 0.3 0.2 0.5 0.5 0.5 0.3 0 0.5 -0.2 0.5 -0.5z m-43.3 -3.2 c-0.4 -0.3 -0.7 0 -0.7 0.7 0 0.7 0.3 1 0.7 0.7 0.3 -0.4 0.3 -1 0 -1.4z m-7 -1 c-0.4 -0.3 -0.7 0 -0.7 0.7 0 0.7 0.3 1 0.7 0.7 0.3 -0.4 0.3 -1 0 -1.4z m51.3 1.2 c0 -0.3 -0.2 -0.5 -0.5 -0.5 -0.3 0 -0.5 0.2 -0.5 0.5 0 0.3 0.2 0.5 0.5 0.5 0.3 0 0.5 -0.2 0.5 -0.5z m-43 -2 c0 -0.3 -0.2 -0.5 -0.5 -0.5 -0.3 0 -0.5 0.2 -0.5 0.5 0 0.3 0.2 0.5 0.5 0.5 0.3 0 0.5 -0.2 0.5 -0.5z m-7 -1 c0 -0.3 -0.2 -0.5 -0.5 -0.5 -0.3 0 -0.5 0.2 -0.5 0.5 0 0.3 0.2 0.5 0.5 0.5 0.3 0 0.5 -0.2 0.5 -0.5z m50.7 -1.7 c-0.3 -0.8 -0.6 -0.5 -0.6 0.6 -0.1 1.1 0.2 1.7 0.5 1.3 0.3 -0.3 0.4 -1.2 0.1 -1.9z m-42.7 0.7 c0 -0.3 -0.2 -0.5 -0.5 -0.5 -0.3 0 -0.5 0.2 -0.5 0.5 0 0.3 0.2 0.5 0.5 0.5 0.3 0 0.5 -0.2 0.5 -0.5z m-7 -2 c0 -0.3 -0.2 -0.5 -0.5 -0.5 -0.3 0 -0.5 0.2 -0.5 0.5 0 0.3 0.2 0.5 0.5 0.5 0.3 0 0.5 -0.2 0.5 -0.5z m8 0 c0 -0.3 -0.2 -0.5 -0.5 -0.5 -0.3 0 -0.5 0.2 -0.5 0.5 0 0.3 0.2 0.5 0.5 0.5 0.3 0 0.5 -0.2 0.5 -0.5z m41.9 -17.7 c-4.7 -11.5 -19.4 -10.2 -31.9 2.9 -5.5 5.7 -5.5 5.7 0.2 0.5 6.7 -6.2 12.7 -9.1 18.3 -9.2 8.5 0 13.4 6.1 13.7 17.2 0.2 6.3 0.2 6.3 0.5 -1.1 0.2 -4.3 -0.1 -8.7 -0.8 -10.3z m-40.9 15.7 c0 -0.3 -0.2 -0.5 -0.5 -0.5 -0.3 0 -0.5 0.2 -0.5 0.5 0 0.3 0.2 0.5 0.5 0.5 0.3 0 0.5 -0.2 0.5 -0.5z m2.5 -4.1 c0.9 -1.5 1.2 -2.3 0.6 -2 -1.1 0.7 -3.5 4.6 -2.8 4.6 0.3 0 1.2 -1.2 2.2 -2.6z m-52.4 -13.4 c2.8 -7.5 2.8 -7.5 -0.6 -3.5 -3 3.4 -3.5 4.7 -3.4 9 0 2.8 0.3 4.3 0.6 3.5 0.3 -0.8 1.8 -4.9 3.4 -9z m65 -8.1 c3.1 -1.6 6.3 -2.3 10.6 -2.3 5.4 -0.1 6.7 0.3 10.9 3.3 4.2 2.9 4.6 3 3.3 1 -6.7 -10.2 -20.7 -8.8 -33 3.2 -4.1 4 -4.3 4.3 -0.9 1.2 2.6 -2.2 6.7 -5.1 9.1 -6.4z m-62.9 -2.6 c4.5 -5.4 8.8 -10.7 9.4 -11.8 0.5 -1.1 1.7 -1.9 2.6 -1.9 0.9 0.1 1.4 -0.4 1.2 -1 -0.3 -0.7 2 -4.4 5.1 -8.2 3 -3.8 5.5 -7.2 5.5 -7.6 0 -0.4 -2.8 -2.4 -6.2 -4.4 -6.3 -3.6 -6.3 -3.6 -10.1 0.8 -2.1 2.5 -9.4 11.6 -16.2 20.4 -12.5 15.9 -12.5 15.9 -10.3 17.7 2.5 1.9 8.9 5.6 10 5.7 0.3 0 4.4 -4.4 9 -9.7z m1.8 2.2 c0 -0.3 -0.2 -0.5 -0.5 -0.5 -0.3 0 -0.5 0.2 -0.5 0.5 0 0.3 0.2 0.5 0.5 0.5 0.3 0 0.5 -0.2 0.5 -0.5z m27.5 -27.2 c2.8 -1.1 6.6 -2.6 8.5 -3.1 3.1 -0.9 2.6 -1 -3.9 -0.9 -7.4 0.2 -7.4 0.2 -13 6.6 -5.6 6.4 -5.6 6.4 -1.1 3 2.5 -1.9 6.8 -4.4 9.5 -5.6z m30.5 1.8 c0 -1.7 -0.3 -3.2 -0.7 -3.4 -0.5 -0.3 -3.9 -0.8 -7.8 -1.1 -7 -0.7 -7 -0.7 -2 1.7 2.8 1.4 5.9 3.2 7 4.1 2.9 2.2 3.5 2 3.5 -1.3z m-9.6 -9.6 c-4.1 -2.4 -10.8 -3.8 -25.1 -5 -4 -0.3 -7.3 -0.3 -7.3 0 0 0.3 2.4 1.7 5.4 3.1 5.3 2.4 15 4 25.6 4.3 5.5 0.1 5.5 0.1 1.4 -2.4z"/>
 </g>
</svg>