<?xml version="1.0" encoding="utf-8"?>
<!DOCTYPE svg PUBLIC "-//W3C//DTD SVG 20010904//EN" "http://www.w3.org/TR/2001/REC-SVG-20010904/DTD/svg10.dtd">
<svg version="1.0" xmlns="http://www.w3.org/2000/svg" width="262px" height="262px" viewBox="0 0 262 262" preserveAspectRatio="xMidYMid meet">
 <g fill="#ffffff">
  <path d="M112.5 242.6 c-6.3 -1.5 -15.9 -5.9 -20.3 -9.3 -4.4 -3.3 -7.9 -10.9 -9.2 -19.8 -0.5 -3.9 -1 -18.3 -1 -32.1 0 -24.4 -0.1 -25.1 -2.1 -27 -4.4 -3.9 -5.9 -9.1 -5.9 -21.2 0 -12.1 0.9 -15.5 5.2 -20.7 l2.6 -3 0.4 -29.5 c0.5 -31.5 1.1 -35.7 6.1 -43.1 5.5 -8.1 20.4 -13.9 37.7 -14.6 18.6 -0.8 34 3.7 42.8 12.5 6.8 6.8 7.4 10.2 7.9 44.7 0.5 29.8 0.5 30 2.8 32.5 4.3 4.5 5.5 9.1 5.5 21 0 12.1 -1.2 16.5 -5.7 21.2 l-2.5 2.6 0.1 20.9 c0.2 26.5 -1.1 41.8 -3.8 47.2 -4.6 8.9 -13.6 14.7 -27.3 17.5 -9 1.9 -26.1 2 -33.3 0.2z m28.4 -1.7 c14.5 -2.3 24.3 -7.8 29.1 -16.2 4.2 -7.2 3.7 -8.3 -1.7 -4.1 -10.6 8.1 -21.9 11.4 -38.8 11.4 -17 0 -28.2 -3.3 -39 -11.5 l-4.8 -3.7 0.7 2.9 c3.8 15.6 28.9 25.4 54.5 21.2z m10.5 -15.7 c3.2 -1.2 8.7 -4 12.1 -6.2 5.1 -3.3 6.4 -4.8 7.4 -8.1 0.7 -2.3 1.5 -4.7 1.8 -5.5 0.3 -0.7 -2.4 0.6 -6 3 -12.2 8.2 -25.4 11.3 -42.7 10.2 -14.2 -0.9 -25.2 -4.7 -34.4 -11.9 -3.8 -3 -3.8 -3 -3.1 -0.6 0.4 1.3 1.9 4.5 3.3 7.1 2.1 4.1 3.6 5.3 9.8 8.4 11.4 5.6 15.1 6.3 31.4 6.1 12 -0.3 15.5 -0.7 20.4 -2.5z m-1 -13.1 c11.4 -4 18.1 -9.3 21 -16.3 2.5 -5.8 1.9 -6.3 -2.4 -2.5 -4.4 4.1 -9 6.6 -17 9.3 -4.5 1.6 -8.4 1.9 -22.5 1.9 -14.1 0 -18 -0.3 -22.5 -1.9 -8 -2.7 -12.6 -5.2 -17 -9.3 -4.4 -3.9 -5 -3 -2.1 3.2 3.3 7.3 13.2 14.1 24.9 17 8.6 2.2 29.8 1.4 37.6 -1.4z m-9.5 -11.2 c9 -1.4 22.1 -6.6 24.8 -9.8 3.5 -4 6.1 -8.3 6.9 -11.4 l0.7 -2.9 -4.8 3.7 c-10.8 8.2 -22 11.5 -39 11.5 -17 0 -28.2 -3.3 -39 -11.5 l-4.8 -3.7 0.7 2.9 c3.8 15.6 28.9 25.4 54.5 21.2z m5.6 -14.3 c8 -2.1 12.6 -4.4 18.7 -9.2 3.1 -2.4 6 -4.4 6.5 -4.4 0.4 0 0.6 -2.7 0.5 -6 l-0.4 -6 -3.6 1.9 c-2.1 1 -7.1 3.1 -11.2 4.7 -7.2 2.7 -8.2 2.8 -26 2.8 -20.5 0.1 -25.1 -0.6 -36.7 -6 l-7.3 -3.3 0 3.1 c0 6.7 2 10.5 7.4 14.1 7.5 5 10.9 6.6 17.3 8.1 7.6 1.9 28.3 2 34.8 0.2z m2.9 -19.6 c10.1 -2.6 19.1 -6.9 25.1 -12.2 4.7 -4.2 8.4 -10.4 8.5 -14.3 0 -1.6 -0.8 -1.2 -4 2.2 -12.1 12.4 -31.5 18.3 -56 17 -19.1 -1.1 -39.4 -9.7 -45.2 -19.2 -1.7 -2.8 -1.8 -2.8 -1.8 -0.7 0 6.5 8.6 16.9 17.8 21.6 4.6 2.3 15.9 5.8 22.2 6.9 7.7 1.3 26.1 0.6 33.4 -1.3z m-2.5 -11.1 c8 -1.3 19.1 -5.8 25.3 -10.4 5.9 -4.4 10.8 -12.5 10.8 -18 0 -4.5 -2.8 -11.3 -5.5 -13.5 -1.7 -1.4 -1.8 -1.3 -1.1 1.5 0.4 1.7 1 5.8 1.3 9.2 0.4 5.1 0.1 7 -1.7 10.7 -10.2 21.3 -57.1 27.3 -82.8 10.6 -8.4 -5.4 -12.2 -11.3 -12.2 -19 0 -3.2 0.5 -7.1 1.1 -8.8 1.9 -5.5 0.3 -5.9 -3 -0.7 -2.8 4.4 -3.2 5.7 -2.8 10.2 0.5 7.3 4.7 13.6 12.3 18.9 5.5 3.7 17.7 8.6 24.4 9.7 5.2 0.9 27.8 0.6 33.9 -0.4z m-3.4 -8 c8.7 -1.6 19.3 -6.8 23.7 -11.7 4.4 -4.9 4.5 -5.3 5.8 -19.7 0.5 -6 1.3 -12.6 1.6 -14.5 l0.7 -3.4 -4.9 4.3 c-6.3 5.5 -17.2 10.7 -25.4 12 -8.5 1.4 -24.1 1.4 -31.6 0 -8.2 -1.5 -19.3 -6.9 -24.9 -12 l-4.8 -4.4 0.7 3.5 c0.4 1.9 1.1 8.8 1.6 15.3 0.5 6.5 1.6 13 2.4 14.6 3.5 6.8 15.6 13.9 27.1 16 10.7 2 16.6 2 28 0z m-0.2 -35.4 c17.6 -3.1 31.6 -13.8 31.7 -24.3 0 -2.1 -0.5 -1.9 -5.7 2.4 -10.9 8.9 -20.9 11.9 -39.8 11.9 -18.9 0 -28.9 -3 -39.7 -11.9 -5.3 -4.3 -5.8 -4.5 -5.8 -2.5 0 3.8 4 10.7 8.2 14.3 11.2 9.6 31.5 13.6 51.1 10.1z m8.7 -15.4 c12.5 -4.3 21.4 -12.5 22.7 -20.9 l0.6 -3.7 -3.4 2.8 c-6.8 5.5 -11 8 -17.6 10.5 -5.9 2.2 -8.8 2.6 -21.8 3 -21.7 0.6 -32.8 -2.5 -43 -11.9 -2.3 -2.1 -4.6 -3.9 -5 -3.9 -1.4 0 0.6 7.5 3 11.2 4 6 14.2 12 25.4 14.8 2 0.5 10.1 0.8 18.1 0.6 11.9 -0.2 15.7 -0.6 21 -2.5z m-9.2 -11.1 c14.3 -2.4 25 -8.5 29.4 -17 2.7 -5.1 3.7 -11.3 2 -12.4 -0.5 -0.3 -1.5 0.6 -2.3 2 -4.8 9.1 -23.5 16.4 -41.8 16.4 -18.6 -0.1 -31.8 -4.7 -41.1 -14.6 l-5.2 -5.5 0.7 5.8 c1.6 12.9 8.1 18.8 26.9 24.4 7 2 21.7 2.4 31.4 0.9z m4.7 -15.6 c8.6 -2.2 17.4 -7.3 21.3 -12.3 4 -5.3 4.5 -12.3 1 -17.9 -2.8 -4.6 -12.6 -10.8 -21.3 -13.4 -10.1 -3.1 -28.2 -3.1 -38 0 -15 4.7 -23.5 12.3 -23.5 20.9 0 10.1 7.5 17.4 23 22.4 7.3 2.4 29 2.6 37.5 0.3z"/>
  <path d="M109 127.2 c-10.1 -2.8 -22.8 -10.4 -21.9 -13.1 0.3 -0.8 2 -0.1 4.5 1.8 20.5 14.7 55.3 15 74.9 0.6 4.7 -3.4 5.5 -3.8 5.5 -2.2 0 2.1 -9.6 8.3 -17.7 11.4 -6.1 2.4 -8.4 2.7 -22.8 3 -13.2 0.2 -17.2 0 -22.5 -1.5z"/>
  <path d="M115 68.2 c-23 -6.2 -29.2 -22.8 -12.6 -34 7.5 -5 14.4 -6.7 27.1 -6.7 12.7 0 19.6 1.7 27.1 6.7 12.7 8.5 12.7 20 0 28.5 -6.7 4.6 -13.5 6.4 -25.1 6.9 -7.4 0.3 -11.7 0 -16.5 -1.4z m35.4 -5.1 c8.6 -4.2 12.6 -8.8 12.6 -14.4 0 -6.7 -2.9 -10.1 -12.7 -14.8 -10.2 -5 -27.6 -5.5 -39.6 -1.2 -6.2 2.2 -13.2 8.3 -14.7 12.7 -2.5 7.7 4.8 15.7 18.5 20.3 2.7 0.9 8 1.2 16.7 1 11.9 -0.3 13.1 -0.6 19.2 -3.6z"/>
 </g>
</svg>