<?xml version="1.0" encoding="utf-8"?>
<!DOCTYPE svg PUBLIC "-//W3C//DTD SVG 20010904//EN" "http://www.w3.org/TR/2001/REC-SVG-20010904/DTD/svg10.dtd">
<svg version="1.0" xmlns="http://www.w3.org/2000/svg" width="189px" height="188px" viewBox="0 0 189 188" preserveAspectRatio="xMidYMid meet">
 <g fill="#ffffff">
  <path d="M75 135.2 c-3.6 -2.1 -9.4 -5.7 -12.9 -8 -3.5 -2.3 -6.8 -4.2 -7.3 -4.2 -0.4 0 -0.8 -8.5 -0.8 -18.9 0 -18.9 0 -18.9 5.4 -30.3 5.3 -11.4 5.3 -11.4 15.7 -14.7 21.8 -7 39.8 -4.7 53.4 6.8 2.8 2.3 6.2 4.9 7.8 5.7 2.7 1.5 2.7 1.5 2.7 20.2 0 18.7 0 18.7 -5.1 29.8 -5.2 11.1 -5.2 11.1 -16.3 13.9 -8.4 2.1 -14.1 2.9 -23.6 3.2 -12.5 0.3 -12.5 0.3 -19 -3.5z m33 -1.1 c17.5 -2.7 17.5 -2.7 17.8 -17.9 0.3 -17.9 2.7 -16.6 -22.8 -12.4 -16.5 2.7 -16.5 2.7 -16.8 18 -0.3 15.2 -0.3 15.2 2 15.1 1.3 0 10.2 -1.3 19.8 -2.8z m-23.3 -26.4 c-0.4 -1.2 -27.6 -17.7 -29.1 -17.7 -0.4 0 -0.6 6.7 -0.6 14.9 0 16.5 -1.6 14.5 22 27.5 6.5 3.6 6.5 3.6 7.4 -9.9 0.5 -7.4 0.6 -14 0.3 -14.8z m52.2 -11.7 c0 -13.5 0 -13.5 -3.9 -6 -3.9 7.5 -3.9 7.5 -3.9 21 0 13.5 0 13.5 3.9 6 3.9 -7.5 3.9 -7.5 3.9 -21z m-49.9 7.5 c0 -0.3 -0.2 -0.5 -0.5 -0.5 -0.3 0 -0.5 0.2 -0.5 0.5 0 0.3 0.2 0.5 0.5 0.5 0.3 0 0.5 -0.2 0.5 -0.5z m-2.3 -1.2 c-0.4 -0.3 -1 -0.3 -1.4 0 -0.3 0.4 0 0.7 0.7 0.7 0.7 0 1 -0.3 0.7 -0.7z m-2.7 -0.8 c0 -0.3 -0.2 -0.5 -0.5 -0.5 -0.3 0 -0.5 0.2 -0.5 0.5 0 0.3 0.2 0.5 0.5 0.5 0.3 0 0.5 -0.2 0.5 -0.5z m44.3 -5.3 c3 -2.6 1.1 -2.4 -2.9 0.4 -3 2 -3.3 2.5 -1.4 1.9 1.4 -0.4 3.3 -1.4 4.3 -2.3z m-31.3 0.9 c0 -1 -4.5 -2.6 -10.3 -3.6 -6.1 -1 -12.1 -4 -16.6 -8.2 -3.7 -3.6 -4.1 -4.5 -4.1 -8.9 0 -3.5 -0.3 -4.5 -1 -3.4 -1.5 2.3 -1.2 8.7 0.5 12 2.1 4 7.4 7.9 14.8 10.6 6.2 2.3 16.7 3.2 16.7 1.5z m18.2 -1.1 c7.5 -2.3 14.1 -6.7 16.3 -10.9 1.7 -3.4 2 -9.8 0.5 -12.1 -0.7 -1.1 -1 -0.3 -1 2.9 0 8.3 -7.9 14.9 -20.8 17.6 -8.3 1.8 -10.2 2.4 -10.2 3.6 0 1.6 8.6 1 15.2 -1.1z m1.9 -7.2 c6.4 -2.7 11.9 -8.7 11.9 -13.1 0 -7.1 -6.9 -13.1 -18.5 -16.1 -11 -2.9 -23 -1.5 -33.3 3.9 -7.4 3.9 -8.2 4.8 -8.9 10.2 -0.5 4.7 -0.3 5.3 3.1 9 4.2 4.7 11.2 8 18.8 8.9 4.6 0.5 5.6 0.4 6.1 -1 0.4 -1 0.1 -1.8 -0.6 -2.1 -10 -3.1 -12.6 -4.2 -14.9 -6.6 -4.2 -4.2 -3.9 -9.7 0.7 -13.7 4.2 -3.7 9 -5.2 17 -5.2 8.2 0 13 1.5 17.3 5.5 2.9 2.6 3.6 4 3.6 6.9 0 4.9 -3.6 8.3 -11.6 11 -6.4 2.2 -6.8 2.5 -6.8 4.9 0 1.9 9.5 0.4 16.1 -2.5z m-54.2 -1 c-0.6 -1.2 -1.5 -3.3 -1.9 -4.7 -0.7 -2.6 -0.7 -2.6 -1.5 0.2 -0.5 2 -0.3 3.3 1 4.7 2.4 2.7 3.9 2.5 2.4 -0.2z m33.1 -2.3 c0 -0.3 -0.2 -0.5 -0.5 -0.5 -0.3 0 -0.5 0.2 -0.5 0.5 0 0.3 0.2 0.5 0.5 0.5 0.3 0 0.5 -0.2 0.5 -0.5z m7 0 c0 -0.3 -0.2 -0.5 -0.5 -0.5 -0.3 0 -0.5 0.2 -0.5 0.5 0 0.3 0.2 0.5 0.5 0.5 0.3 0 0.5 -0.2 0.5 -0.5z m-10.2 -3.2 c-1 -0.2 -2.8 -0.2 -4 0 -1.3 0.2 -0.5 0.4 1.7 0.4 2.2 0.1 3.2 -0.1 2.3 -0.4z m16 0 c-1 -0.2 -2.6 -0.2 -3.5 0 -1 0.3 -0.2 0.5 1.7 0.5 1.9 0 2.7 -0.2 1.8 -0.5z m-16.8 -3.5 c1.8 -0.6 1.2 -0.6 -1.9 -0.3 -2.4 0.3 -5.1 1 -6 1.5 -1.8 1.1 3.6 0.3 7.9 -1.2z m20.9 1.2 c-0.9 -0.5 -3.6 -1.2 -6 -1.4 -4.4 -0.6 -4.4 -0.6 -0.4 0.8 4.8 1.7 8.9 2.1 6.4 0.6z m25.1 -2.1 c0.9 -1.5 0.8 -2.4 -0.1 -3.5 -1.9 -2.3 -2.5 -1.6 -2.1 2.1 0.5 4.1 0.7 4.2 2.2 1.4z m-38.5 -5.7 c8.1 0.3 10.8 0.8 13.8 2.5 3.5 2.1 3.7 2.1 3.7 0.4 0 -2.3 -6.1 -7.8 -9.8 -8.8 -4.9 -1.4 -16.5 -0.8 -20 1.1 -4.4 2.3 -7.2 5.2 -7.2 7.5 0 1.7 0.3 1.7 4.8 -0.6 4.2 -2.2 5.7 -2.4 14.7 -2.1z m-12.5 4.3 c0 -0.3 -0.2 -0.5 -0.5 -0.5 -0.3 0 -0.5 0.2 -0.5 0.5 0 0.3 0.2 0.5 0.5 0.5 0.3 0 0.5 -0.2 0.5 -0.5z m24 0 c0 -0.3 -0.2 -0.5 -0.5 -0.5 -0.3 0 -0.5 0.2 -0.5 0.5 0 0.3 0.2 0.5 0.5 0.5 0.3 0 0.5 -0.2 0.5 -0.5z m-17 -1.5 c2 -0.6 2.1 -0.8 0.5 -0.8 -1.1 0 -3.1 0.4 -4.5 0.8 -2 0.6 -2.1 0.8 -0.5 0.8 1.1 0 3.1 -0.4 4.5 -0.8z m13.5 0 c-1.1 -0.5 -3.1 -0.8 -4.5 -0.8 -2.5 0 -2.5 0 0 0.8 1.4 0.4 3.4 0.8 4.5 0.8 2 0.1 2 0.1 0 -0.8z"/>
 </g>
</svg>