<?xml version="1.0" encoding="utf-8"?>
<!DOCTYPE svg PUBLIC "-//W3C//DTD SVG 20010904//EN" "http://www.w3.org/TR/2001/REC-SVG-20010904/DTD/svg10.dtd">
<svg version="1.0" xmlns="http://www.w3.org/2000/svg" width="214px" height="215px" viewBox="0 0 214 215" preserveAspectRatio="xMidYMid meet">
 <g fill="#ffffff">
  <path d="M78.8 181.6 c-6.9 -2 -13.5 -5.4 -16.7 -8.7 -3.4 -3.4 -4.7 -8.3 -5.6 -21.4 -1.1 -16.8 -1.1 -16.7 -5.5 -19.3 l-4 -2.3 0 -11.2 0 -11.2 5.1 -10.5 c2.7 -5.7 5.7 -11.2 6.6 -12.2 0.8 -0.9 3.6 -2 6.2 -2.3 8.5 -1.2 8.1 -0.7 8.1 -10.4 0 -7 0.4 -9.5 2.3 -13.1 2.9 -5.9 9.1 -10.1 15.5 -10.8 4.5 -0.4 6 0.1 16.9 5.7 6.6 3.4 14.9 8 18.4 10.3 3.5 2.2 8.7 5.3 11.4 6.8 12.3 6.7 17.2 9.5 20.1 11.7 1.7 1.3 3.5 2.3 4.1 2.3 1.4 0 11.4 6.9 15.7 10.8 3.3 3 3.6 3.7 3.6 9 0 10.8 -9.2 23.2 -17.1 23.2 -3.7 0 -13.7 -4 -20.1 -8.1 -2.7 -1.7 -5 -3 -5.2 -2.8 -0.9 1 -6 11.7 -7.2 15.3 -0.8 2.2 -2.2 10.6 -3 18.5 -0.8 7.9 -2.1 15.8 -2.8 17.6 -1.8 4.2 -8.3 9.2 -15.3 11.6 -7.4 2.7 -24.8 3.5 -31.5 1.5z m32.9 -4.5 c2.8 -1.2 6.1 -3.4 7.4 -4.7 l2.4 -2.5 -4.6 2.5 c-13.7 7.7 -38.3 7.3 -50.3 -0.9 -2 -1.4 -3.9 -2.5 -4.3 -2.5 -1.3 0 2.4 3.3 6.4 5.7 7.7 4.5 11.8 5.3 25.3 5 10.4 -0.3 13.4 -0.7 17.7 -2.6z m-4.2 -3.6 c5.6 -1.6 16 -7.8 16.9 -10 0.3 -0.8 -1.3 -0.2 -3.5 1.5 -6.5 4.7 -14.4 7.2 -24.4 7.7 -11.5 0.7 -19.2 -0.8 -28 -5.2 l-7 -3.4 3.9 3.4 c8.5 7.5 27.3 10.2 42.1 6z m-4.3 -3.9 c7.4 -1.6 11.4 -3.4 17.5 -8 5.9 -4.3 5.4 -5.2 -0.7 -1.1 -8.3 5.6 -13.9 7 -27.5 7 -13.2 0 -18.4 -1.3 -27.1 -6.6 l-4.9 -2.9 3.8 3.4 c9.3 8.4 23.7 11.4 38.9 8.2z m0.9 -5 c7.9 -1.7 13.5 -4.4 16.9 -8.1 l2.5 -2.8 -4 2.6 c-6.8 4.4 -12.3 5.9 -24.6 6.4 -12.6 0.6 -19.5 -0.7 -27.6 -5.2 -4.4 -2.4 -5.7 -2.3 -2.5 0.2 9.1 7.2 24.9 9.9 39.3 6.9z m5.2 -6.4 c6.3 -2.3 15.7 -7.8 15.7 -9.3 0 -0.5 -2.1 0.5 -4.7 2.2 -14.5 9.1 -41.4 9.4 -54.4 0.6 -5.5 -3.7 -5.7 -3.8 -6.3 -2.1 -0.3 0.9 -0.2 1.2 0.5 0.8 0.6 -0.3 2 0.3 3.2 1.4 9.4 8.6 31.5 11.7 46 6.4z m-4 -3.7 c6.7 -1.7 14 -5.4 18 -8.9 4 -3.7 3.3 -4.2 -1.1 -0.6 -6.3 5 -14.2 7.3 -26.9 7.8 -13.9 0.5 -23.1 -1.4 -30.6 -6.5 -4.1 -2.8 -4.7 -3 -2.9 -1 8.2 8.8 28.6 13.1 43.5 9.2z m0 -5 c5.9 -1.2 15.3 -5.3 14.4 -6.2 -0.2 -0.2 -3 0.7 -6.3 1.9 -5.1 1.9 -8 2.2 -21.5 2.2 l-15.5 0.1 -7.2 -3.5 c-7.1 -3.6 -8 -2.9 -1.5 1.1 9.1 5.6 23.8 7.4 37.6 4.4z m1 -7 l17.7 -2.8 0 -7.3 c0 -7 -0.1 -7.4 -2.2 -7.4 -1.8 0 -38.9 5.1 -39.4 5.4 -0.1 0.1 -0.5 3.8 -0.9 8.3 l-0.7 8.1 3.9 -0.8 c2.1 -0.4 11.8 -2 21.6 -3.5z m-26.6 -10.9 c-0.3 -0.7 -7.3 -5.1 -15.6 -9.8 l-15.1 -8.7 0 7.7 0 7.7 14.8 8.3 14.7 8.2 0.8 -6 c0.5 -3.4 0.7 -6.7 0.4 -7.4z m54.9 -16.1 c-2 -5.3 -7.6 4.2 -7.5 12.7 l0.1 5.3 4 -8.2 c2.2 -4.6 3.8 -9 3.4 -9.8z m-33.8 9.9 c23.6 -3.6 23.6 -3.6 26.1 -8.7 1.2 -2.4 2.1 -4.6 2.1 -5 0 -0.4 -2.1 -1.8 -4.7 -3.1 -2.7 -1.4 -6.3 -3.5 -8 -4.7 l-3.3 -2.1 -1.1 2.9 c-2.6 6.8 -9 10.2 -19.5 10.3 -8.2 0 -16.3 -3.3 -18.2 -7.6 -0.7 -1.4 -1.2 -7.3 -1.2 -13.3 l0 -10.8 -5.2 0.9 c-2.9 0.5 -5.9 1.5 -6.7 2.1 -1.5 1.3 -12.6 23.6 -12 24.1 0.6 0.4 25.1 14.2 28.4 15.9 3.9 2.1 4 2.1 23.3 -0.9z m67.9 -2 c5.3 -3.3 10.3 -12.7 10.3 -19.3 0 -3.2 -0.5 -4.4 -2.5 -5.7 -3 -1.9 -5.5 -1.2 -10.1 2.8 -7.4 6.6 -10.7 18.5 -6.3 22.9 2.1 2.1 4.4 2 8.6 -0.7z m-12.7 -5.4 c0 -2.8 0.7 -6.7 1.5 -8.6 2 -4.9 7.2 -11.2 10.6 -13 1.6 -0.8 2.9 -1.8 2.9 -2.2 0 -1.5 -8.5 -6.2 -11.2 -6.2 -3.9 0 -11.4 7.1 -14.4 13.5 -2.6 5.5 -3.1 12.2 -1.1 14.8 1.2 1.6 9.5 6.7 11 6.7 0.4 0 0.7 -2.3 0.7 -5z m-15.5 -7.7 c1.6 -10.5 5.3 -17 12.5 -22.2 l4 -2.9 -3.3 -2.1 c-5 -3.1 -8.6 -2.7 -13.4 1.4 -5.6 4.7 -9.3 12.4 -9.3 19.1 0 4.6 0.4 5.5 3.1 7.8 4.2 3.6 5.7 3.3 6.4 -1.1z m-36.3 -0.5 c3.8 -2.1 4.3 -2.8 4.3 -5.8 0 -3.3 -0.5 -3.8 -10 -10.1 -11.4 -7.6 -19.5 -14.7 -19.5 -17.3 0 -1.3 2.1 0.1 7 4.7 3.9 3.6 8.6 7.5 10.5 8.6 l3.5 2 0 -4.2 c0 -2.3 0.5 -5.9 1 -7.9 1.3 -4.5 8.2 -13.4 12.1 -15.7 1.6 -0.9 2.9 -1.9 2.9 -2.3 0 -0.4 -4.2 -3 -9.2 -5.8 -8.7 -4.8 -9.7 -5.1 -15.3 -4.8 -6.7 0.4 -9.8 2.1 -13.6 7.7 -2.3 3.4 -2.4 4 -2.4 25.4 l0 21.9 3 2.3 c6.2 5 18 5.6 25.7 1.3z m23.8 -6.3 c0 -8.2 6.8 -19.8 13.7 -23.4 l3.6 -1.8 -3.5 -2.1 c-5 -3.1 -9.6 -2.8 -14 0.8 -7.2 5.9 -12.2 20.6 -8.5 25.2 1.2 1.5 6.4 4.7 8 4.8 0.4 0 0.7 -1.6 0.7 -3.5z m-12.5 -8.2 c1.4 -9.6 6.9 -18.9 13.2 -22.1 l3.5 -1.9 -2.7 -2.2 c-4.3 -3.3 -6.9 -3.6 -11.4 -1 -7.1 3.9 -12.1 12.9 -12.1 21.4 0 5.1 0.2 5.6 3.7 8 2.1 1.4 4.1 2.5 4.5 2.5 0.4 0 1 -2.1 1.3 -4.7z m-7.6 -20.7 c1.2 -1.9 3.9 -5 5.9 -6.7 l3.7 -3.1 -3.3 1.8 c-5.2 3 -11.2 11.9 -11.2 16.6 0.1 1.8 0.4 1.5 1.4 -1.3 0.7 -2 2.3 -5.3 3.5 -7.3z"/>
  <path d="M161.2 120.8 c-3.2 -3.2 0.7 -16.1 5.8 -18.8 2.6 -1.4 7.3 -1.3 8.8 0.2 3.2 3.2 -0.7 16.1 -5.8 18.8 -2.6 1.4 -7.3 1.3 -8.8 -0.2z m8 -2.7 c3.3 -2.7 6.2 -9.3 5.4 -12.5 -1.2 -4.9 -7.1 -2.4 -10.6 4.4 -2.3 4.5 -2.5 7.1 -0.8 8.8 1.7 1.7 3.1 1.5 6 -0.7z"/>
 </g>
</svg>