<?xml version="1.0" encoding="utf-8"?>
<!DOCTYPE svg PUBLIC "-//W3C//DTD SVG 20010904//EN" "http://www.w3.org/TR/2001/REC-SVG-20010904/DTD/svg10.dtd">
<svg version="1.0" xmlns="http://www.w3.org/2000/svg" width="195px" height="196px" viewBox="0 0 195 196" preserveAspectRatio="xMidYMid meet">
 <g fill="#ffffff">
  <path d="M82.9 159.9 c-12 -1.7 -23.6 -7.8 -27.9 -14.6 -7.5 -11.7 -4.2 -25.8 9.4 -40 4 -4.3 4 -4.3 4.6 -30.6 0.6 -28 0.7 -28.4 5.9 -33.6 5.7 -5.7 22.2 -7.3 31.7 -3.2 8.2 3.6 10.1 6.2 11.3 15.8 0.6 4.5 1.1 17 1.1 27.9 0.2 19.6 0.2 19.6 4.3 23.8 10.5 10.5 12.5 14.8 12.3 26.4 -0.1 7.5 -0.5 9.3 -2.8 13.3 -2.3 3.9 -4 5.3 -11 8.8 -12.1 6.1 -24.8 8.1 -38.9 6z m25.1 -3.4 c12.4 -2.4 23.1 -10.1 24.5 -17.7 0.4 -2 0.4 -2 -1.8 -0.2 -1.2 1 -2.7 2.3 -3.2 2.9 -2.5 2.5 -8.3 5.4 -12.7 6.4 -0.4 0.1 -2.6 0.8 -4.8 1.6 -3 1.1 -7.7 1.4 -17.3 1.1 -7.3 -0.2 -13.9 -0.5 -14.7 -0.8 -0.8 -0.3 -2.8 -0.9 -4.5 -1.3 -4.2 -1.2 -14.4 -7.3 -17.3 -10.4 -2.5 -2.6 -2.5 -2.6 -1.7 -0.1 2.9 9.5 12.9 16.6 27.5 19.4 3.2 0.6 21.4 -0.1 26 -0.9z m-20.3 -8.2 c-0.4 -0.3 -1 -0.3 -1.4 0 -0.3 0.4 0 0.7 0.7 0.7 0.7 0 1 -0.3 0.7 -0.7z m6.1 0 c-1 -0.2 -2.6 -0.2 -3.5 0 -1 0.3 -0.2 0.5 1.7 0.5 1.9 0 2.7 -0.2 1.8 -0.5z m-11.1 -1 c-0.4 -0.3 -1 -0.3 -1.4 0 -0.3 0.4 0 0.7 0.7 0.7 0.7 0 1 -0.3 0.7 -0.7z m23.3 0.2 c0 -0.3 -0.2 -0.5 -0.5 -0.5 -0.3 0 -0.5 0.2 -0.5 0.5 0 0.3 0.2 0.5 0.5 0.5 0.3 0 0.5 -0.2 0.5 -0.5z m-28 -1 c0 -0.3 -0.2 -0.5 -0.5 -0.5 -0.3 0 -0.5 0.2 -0.5 0.5 0 0.3 0.2 0.5 0.5 0.5 0.3 0 0.5 -0.2 0.5 -0.5z m32.7 -0.2 c-0.4 -0.3 -1 -0.3 -1.4 0 -0.3 0.4 0 0.7 0.7 0.7 0.7 0 1 -0.3 0.7 -0.7z m-36 -1 c-0.4 -0.3 -1 -0.3 -1.4 0 -0.3 0.4 0 0.7 0.7 0.7 0.7 0 1 -0.3 0.7 -0.7z m28.8 -0.4 c5.9 -1.1 6.7 -1.3 8 -2 0.6 -0.4 2.2 -0.9 3.8 -1.3 1.5 -0.3 2.7 -1.1 2.7 -1.6 0 -0.6 0.6 -1 1.3 -1 2.3 0 7.9 -6.9 8.4 -10.3 0.5 -3.2 0.5 -3.2 -3.3 0.3 -2.1 1.9 -4.1 3.8 -4.4 4.1 -0.3 0.3 -3.2 1.7 -6.5 3 -5.3 2.1 -7.7 2.3 -20 2.4 -13.6 0 -14.2 -0.1 -20.5 -3.1 -3.6 -1.7 -8.3 -4.6 -10.3 -6.4 -3.8 -3.3 -3.8 -3.3 -3.3 -0.6 0.8 4.6 5.3 9.3 11.9 12.6 9.6 4.7 20.8 6.1 32.2 3.9z m10.2 0.4 c-0.4 -0.3 -1 -0.3 -1.4 0 -0.3 0.4 0 0.7 0.7 0.7 0.7 0 1 -0.3 0.7 -0.7z m-43.7 -1.8 c-1.4 -0.8 -2.9 -1.4 -3.5 -1.4 -0.5 0 0.1 0.6 1.5 1.4 1.4 0.8 3 1.4 3.5 1.4 0.6 0 -0.1 -0.6 -1.5 -1.4z m50.1 -0.5 c4.5 -2.3 10.1 -7.4 11.8 -10.7 1.3 -2.6 1.4 -9.2 0.2 -11.2 -0.5 -0.8 -1 0.8 -1.3 4.7 -0.5 7.4 -3.6 11.9 -11.1 16.2 -5.9 3.4 -5.6 4 0.4 1z m-56.4 -3.2 c-1 -0.5 -3.1 -3 -4.7 -5.5 -2.5 -3.9 -2.8 -5.2 -2.4 -9.9 0.5 -6.3 -0.1 -6.9 -1.5 -1.7 -1.5 5.4 0.2 10.6 5.1 15.4 2.2 2.2 4.4 3.7 4.7 3.3 0.3 -0.3 -0.2 -1 -1.2 -1.6z m41.4 -4.2 c8 -1.7 13.6 -4.5 18.9 -9.3 3.7 -3.3 3.9 -3.8 3.4 -7.7 -0.4 -2.2 -1.2 -5.2 -1.9 -6.6 -1.4 -2.7 -5.3 -6.6 -5.9 -5.9 -0.3 0.2 -0.5 3.8 -0.7 7.9 -0.2 9.2 -1.8 11.8 -9.5 15.6 -4.9 2.4 -6.8 2.7 -15.7 2.8 -9.5 0.1 -10.6 -0.1 -15.6 -2.9 -7.8 -4.3 -9.5 -7 -9.4 -15.2 0 -3.8 -0.2 -7.2 -0.4 -7.6 -0.3 -0.5 -1.6 0.2 -3 1.5 -8.6 8 -6.1 17.4 6.2 23.5 10.4 5.1 21.7 6.4 33.6 3.9z m4.2 -8.9 c5.4 -3.2 6.7 -5.2 6.7 -10.1 0 -3.5 0 -3.5 -6.1 -0.3 -5.7 2.9 -6.8 3.1 -15.8 3 -5.3 0 -10.3 -0.3 -11.1 -0.5 -0.8 -0.3 -2.7 -0.8 -4.2 -1.3 -1.6 -0.4 -2.8 -1 -2.8 -1.4 0 -0.4 -1.1 -1.3 -2.5 -1.9 -2.3 -1.1 -2.5 -1 -2.5 1.7 0 6.1 5 11.5 11.8 12.7 1.4 0.3 2.9 0.8 3.2 1.1 0.3 0.3 4.6 0.3 9.5 0.1 7.7 -0.3 9.8 -0.8 13.8 -3.1z m-0.6 -12.6 c2.3 -1.1 4.9 -3.1 5.7 -4.3 1.7 -2.4 2.2 -8.8 0.7 -8.8 -0.5 0 -3.5 1.2 -6.6 2.6 -4.8 2.2 -7.3 2.7 -13.9 2.7 -8.6 0 -18.5 -2.2 -20.6 -4.8 -1.7 -2 -3 -1 -3 2.3 0 4.6 1.1 7.1 3.4 7.8 1.1 0.4 2.3 1 2.6 1.5 2.7 4.1 24.3 4.8 31.7 1z m-4 -11.6 c2.8 -0.8 6.5 -2.8 8.2 -4.4 2.6 -2.5 3.1 -3.6 3.1 -7.8 0 -2.6 -0.4 -4.3 -0.8 -3.7 -0.4 0.6 -2.9 2.1 -5.7 3.5 -4.4 2.1 -6.4 2.4 -16 2.4 -9.9 0 -11.6 -0.3 -16.7 -2.7 -5.8 -2.7 -5.8 -2.7 -5.8 0.2 0 4.1 1.7 8 3.5 8 0.8 0 1.5 0.4 1.5 0.8 0 0.7 3.4 2.4 8.5 4.3 3.6 1.3 15 0.9 20.2 -0.6z m0 -13.4 c7.8 -2.2 11.3 -6.3 11.3 -13.1 0 -2.7 0 -2.7 -6.2 0.4 -5.7 2.8 -7.1 3.1 -16.3 3.1 -9 0 -10.6 -0.3 -15.4 -2.7 -7 -3.7 -7.5 -3.6 -6.8 1.2 1.1 8.3 10.7 13.4 23.2 12.5 3.9 -0.3 8.5 -0.9 10.2 -1.4z m0.4 -13.2 c2.1 -0.7 5.4 -2.5 7.3 -4.1 3.3 -2.7 3.6 -3.4 3.6 -8.3 0 -3 -0.4 -5.6 -0.8 -5.9 -0.4 -0.2 -3.5 0.9 -6.8 2.5 -10.8 5.4 -24.6 4.5 -33.5 -2.1 -2.7 -1.9 -2.7 -1.9 -3.3 0.3 -0.3 1.2 -0.6 3.9 -0.6 6 0 7.6 8.9 12.5 22.9 12.6 4 0.1 9.1 -0.4 11.2 -1z m-1.5 -16.4 c2.7 -0.8 5.9 -2.4 7.1 -3.5 1.2 -1.1 2.7 -2 3.3 -2 1.4 0 1.2 -3.5 -0.5 -7.6 -2.6 -6.3 -15.3 -9.8 -26.7 -7.5 -7.7 1.6 -12 4.7 -13.4 9.6 -1 3.7 -0.9 4 1.9 6.4 6.6 5.5 18.6 7.5 28.3 4.6z"/>
  <path d="M87.2 59.1 c-1.7 -0.5 -4.8 -1.9 -6.7 -3.2 -2.9 -2 -3.5 -3 -3.5 -6 0 -7.5 10.9 -12.3 22.7 -9.9 8.6 1.8 12.3 6.6 9.8 12.6 -2.2 5.3 -13.7 8.6 -22.3 6.5z m17.5 -4.8 c3.8 -2.7 3.8 -6.9 0 -9.6 -4.2 -3.2 -14.3 -3.6 -20.1 -0.8 -2.4 1.2 -4.7 2.9 -5 3.7 -0.8 2 2.7 6.6 6.2 8.1 4.4 1.9 15.7 1.1 18.9 -1.4z"/>
 </g>
</svg>