<?xml version="1.0" encoding="utf-8"?>
<!DOCTYPE svg PUBLIC "-//W3C//DTD SVG 20010904//EN" "http://www.w3.org/TR/2001/REC-SVG-20010904/DTD/svg10.dtd">
<svg version="1.0" xmlns="http://www.w3.org/2000/svg" width="219px" height="219px" viewBox="0 0 219 219" preserveAspectRatio="xMidYMid meet">
 <g fill="#ffffff">
  <path d="M91 189.4 c-8.2 -2.2 -15.6 -6.2 -19.9 -10.9 -4.5 -4.9 -5.6 -9.7 -7 -30.4 -0.7 -9.6 -1.2 -12.6 -2.4 -13.3 -0.9 -0.4 -3 -2 -4.6 -3.4 -3.1 -2.6 -3.1 -2.6 -3.1 -12.6 0 -9.7 0.2 -10.5 4 -18.8 4.2 -9.1 4.2 -9.1 7 -36.5 0.6 -6 1.9 -12.8 2.9 -15.1 4.5 -10.2 21.1 -17.4 40.2 -17.4 15.2 0 26.2 2.9 35.6 9.4 7.4 5.1 8.9 9.1 10.7 28.8 0.8 9.3 1.8 17.3 2.1 17.8 0.4 0.6 2.4 2.2 4.6 3.6 l3.9 2.4 0 9.6 c0 9 -0.3 10.3 -3.9 18.8 -4.5 10.6 -5.7 16.2 -7.1 34.5 -0.7 10 -1.5 14.6 -3.1 17.8 -3.3 6.9 -12.3 12.9 -23.6 15.8 -7.5 2 -28.8 1.9 -36.3 -0.1z m34.8 -1.9 c9.7 -2.3 17.1 -6.5 21.5 -12.2 2 -2.5 1.8 -2.5 -1.8 0.6 -8.4 7.3 -20.3 10.6 -38 10.4 -13.4 -0.1 -21 -1.9 -29.9 -7.4 -5.7 -3.5 -7.2 -3.2 -2.4 0.4 4.5 3.3 9.2 5.7 15.8 7.8 7.1 2.3 25.8 2.5 34.8 0.4z m-1.2 -4.6 c6.5 -1.2 15.9 -5.8 20.4 -9.9 l3.5 -3.2 -3.5 2.2 c-21.9 13.5 -54.2 13.1 -72.1 -1.1 -2.1 -1.7 -3.9 -2.7 -3.9 -2.2 0 1.2 8.7 7.6 13.6 10.1 11 5.5 26.6 7 42 4.1z m0.9 -5.1 c2.7 -0.6 6.8 -1.8 9 -2.8 4.7 -2.1 14.5 -9.2 15.9 -11.7 0.5 -0.9 -1.1 -0.1 -3.5 1.9 -9 7.3 -17.8 10.4 -32.4 11.4 -16.7 1.2 -31.9 -2.9 -42.2 -11.3 -5.5 -4.4 -5.6 -3.5 -0.2 1.5 7.8 7 15.1 10.3 27.4 12.3 5.7 0.9 18.7 0.2 26 -1.3z m3 -5.8 c3.9 -1.2 8.6 -3.1 10.5 -4.3 4 -2.4 11.3 -8.6 11.9 -10.1 0.2 -0.6 -1.5 0.6 -3.9 2.8 -8.8 7.9 -20 11.1 -39 11.1 -12 -0.1 -14.3 -0.4 -20.7 -2.6 -3.9 -1.5 -9.2 -4 -11.7 -5.7 -5.4 -3.7 -6.2 -2.7 -1.1 1.2 4.9 3.8 13.3 7.4 20.7 9.1 8.7 2 24.3 1.3 33.3 -1.5z m-0.5 -4.6 c6.5 -1.9 12.3 -4.7 16.8 -8.1 4.8 -3.6 3.2 -3.9 -2.4 -0.4 -8.6 5.2 -16.7 7.4 -29.4 7.8 -17.4 0.7 -31.2 -2.9 -41.1 -10.8 -4.7 -3.7 -5.2 -3 -0.6 1.1 4.7 4.3 15.3 9.6 21.7 10.9 3 0.6 6.4 1.3 7.5 1.5 3.9 1 22.1 -0.4 27.5 -2z m-4.7 -3.8 c9 -1.8 16.7 -5.2 22.5 -10.1 2.3 -2 4.6 -3.4 5.2 -3 0.6 0.3 0.7 0 0.4 -0.9 -0.5 -1.3 -1.3 -1.1 -4.4 1.4 -11.8 9.3 -31.1 13.1 -51 10 -10 -1.6 -15.4 -3.7 -22.2 -8.7 l-6.3 -4.5 4 4.1 c10.3 10.8 31.5 15.6 51.8 11.7z m0.2 -5.1 c4.2 -0.8 10 -2.5 12.8 -3.8 5.4 -2.5 15.7 -10.4 15.7 -12 0 -0.5 -2.1 0.9 -4.6 3.2 -8.2 7.2 -21.3 11 -37.9 11.1 -17 0 -29.9 -3.9 -38.6 -11.6 -4.3 -3.9 -4.3 -3.9 -2 -0.7 8.3 11.9 32.6 18 54.6 13.8z m6.5 -6.4 c6.4 -2.1 14.5 -6 12.5 -6 -0.5 -0.1 -4.6 1.1 -9 2.5 -9.7 3.1 -28.7 4.9 -37.2 3.5 -5.6 -0.9 -16.9 -5.7 -24.3 -10.3 l-3.5 -2.2 2.3 2.6 c3.1 3.4 13.1 8.7 20.7 11 8.4 2.5 29.2 1.9 38.5 -1.1z m-6.6 -5.7 c12.6 -1.9 23.4 -3.7 23.8 -4 0.8 -0.5 1.2 -15.4 0.3 -15.4 -3.5 0 -45.5 7.4 -48 8.4 -3.5 1.5 -3.5 1.5 -3.5 8 0 6.1 0.2 6.6 2.2 6.6 1.2 0 12.6 -1.6 25.2 -3.6z m-30.4 -3.7 c0 -8.1 -0.6 -8.7 -21.2 -20.6 l-15.8 -9 0 6.8 c0 6.4 0.2 7.1 2.9 9.3 4.1 3.5 31.3 19.6 33.4 19.7 0.4 0.1 0.7 -2.7 0.7 -6.2z m69.8 -36.2 c0.2 -3.8 0.2 -6.8 -0.1 -6.5 -0.2 0.3 -3 6.3 -6.1 13.3 -4.6 10.4 -5.6 13.7 -5.5 18 l0.1 5.2 5.6 -11.5 c4.9 -10 5.7 -12.4 6 -18.5z m-56.3 24.6 l4 -0.8 -5 -0.6 c-10.2 -1.4 -18.2 -2.7 -20.1 -3.2 -1 -0.3 0.6 0.7 3.6 2.4 5.7 3.1 10 3.7 17.5 2.2z m20.3 -5.6 c10 -2.4 20.5 -8.3 23.9 -13.4 1.6 -2.5 1.6 -2.5 -1.8 0.3 -4.7 4 -16 9.3 -22.8 10.7 -3.5 0.7 -11 1 -20.1 0.6 -19.2 -0.6 -27.7 -3.6 -36.8 -12.7 -3.7 -3.6 -4.2 -3.1 -1.1 1.1 3.1 4.4 10.4 9 19.3 12.1 7.2 2.5 9.5 2.8 20.6 2.8 7.5 0 15 -0.6 18.8 -1.5z m17.2 -0.3 l4.5 -0.7 7.1 -14.5 7.1 -14.4 -2.3 -2.3 c-3.8 -3.8 -4.4 -2.9 -4.4 5.9 0 6.9 -0.4 8.8 -2.5 12.4 -2.7 4.6 -9.7 10.2 -16.6 13.4 -4.9 2.2 -5.2 2.2 7.1 0.2z m-13.8 -5.7 c10 -3.3 18.3 -8.8 21 -13.9 0.7 -1.3 -0.4 -0.7 -3.2 1.8 -8.4 7.6 -21.7 11.6 -38.5 11.6 -18 0 -32.4 -4.8 -40.4 -13.5 -2.2 -2.4 -4.1 -3.9 -4.1 -3.2 0 2.1 10.2 11.4 15.5 14 2.8 1.4 7.1 3 9.5 3.7 11 3 30.1 2.8 40.2 -0.5z m-61.9 -3.7 c-4 -4.3 -5.3 -6.9 -5.4 -11 -0.1 -7.1 -1.3 -7.4 -4.2 -1.2 -1.4 3.3 -2.2 6.3 -1.8 6.7 1 1 13.4 8.6 14 8.7 0.3 0 -0.9 -1.5 -2.6 -3.2z m58 -0.7 c11.2 -2.9 18.4 -6.9 23 -12.8 l2.2 -2.8 -4 3.1 c-5.5 4.3 -11 7 -18.5 8.9 -19.7 5.1 -43.6 1.5 -56.8 -8.5 -3.3 -2.5 -4.9 -3.3 -4.3 -2.1 1.4 2.5 7.5 7.3 12.9 10 11.9 6.1 31.2 7.8 45.5 4.2z m-4.1 -4.5 c12.4 -2.3 23.1 -7.9 27.9 -14.8 l2.3 -3.3 -4.1 3.7 c-9.1 8 -21.4 11.8 -38.8 11.8 -17.6 0 -30 -3.8 -38.5 -11.8 -5.2 -5.1 -5.2 -3.4 0.1 2.3 4.7 5.1 13.6 9.8 21.9 11.4 3 0.6 6.4 1.3 7.5 1.5 4.4 0.8 14.4 0.5 21.7 -0.8z m8.1 -7.5 c8.6 -3 15.6 -7.1 18.3 -10.7 3.6 -4.6 2.9 -5 -1.8 -0.9 -9 7.6 -21.5 11.5 -37.9 11.5 -16.9 0 -34.1 -6.1 -40.1 -14.4 -1.5 -2.1 -2.8 -3.3 -2.8 -2.7 0 2.4 6.9 9.6 12.2 12.8 9 5.5 18.2 7.4 33.3 6.9 9.9 -0.3 14.4 -0.9 18.8 -2.5z m0.1 -5.5 c4.4 -1.5 9.3 -3.6 11 -4.8 4.5 -3.1 10.6 -9 10.6 -10.3 0 -0.7 -1.9 0.5 -4.2 2.7 -8 7.4 -19.9 11.6 -35.8 12.5 -14.5 0.8 -29.6 -3.4 -39.1 -10.9 -5.8 -4.6 -5.2 -2 0.8 3.2 8.6 7.6 21.4 11.1 37.8 10.6 8.6 -0.3 12.7 -0.9 18.9 -3z m-2.9 -4.1 c6.5 -1.7 13.3 -5.4 18.8 -10.4 3.1 -2.9 5.7 -6 5.7 -6.9 0 -0.9 -1.4 0.1 -3.5 2.6 -7.2 8.3 -21.6 13.2 -39 13.2 -17.5 0 -30.5 -4.3 -38.8 -12.6 -5.2 -5.3 -4.6 -2.7 0.7 2.9 7 7.3 17.3 11.5 30.5 12.6 7.7 0.6 20.2 -0.1 25.6 -1.4z m-2.1 -5.1 c8.9 -2.3 17.9 -6.9 21.5 -10.9 4.5 -5.1 3.8 -6.4 -1 -2 -8.1 7.3 -21.5 11.5 -36.7 11.5 -14.8 0 -27.4 -4 -37.2 -11.9 l-4.4 -3.6 2.3 3.3 c4.2 6 12 10.6 23.2 13.6 7.4 2 24.6 2 32.3 0z m-2.6 -4.9 c3.8 -0.8 9.5 -2.5 12.6 -3.9 5.6 -2.5 15.6 -10.9 15.6 -13.1 0 -0.6 -1.8 0.5 -4.1 2.7 -8.8 8.4 -19.7 11.8 -37.4 11.8 -17.2 0 -29.1 -3.6 -37.4 -11.4 -2.5 -2.3 -3.1 -2.5 -2.3 -1 1.5 2.9 7.5 8 12.3 10.5 10.7 5.4 27.3 7.3 40.7 4.4z m2.3 -5.9 c8.9 -1.9 15.9 -5.6 21.4 -11.3 4.5 -4.7 4.6 -4.9 3.9 -9.8 -0.3 -2.7 -1.2 -6.2 -2 -7.6 -3 -5.9 -13 -11.9 -24.1 -14.5 -8.3 -1.9 -26.2 -1.4 -33.8 1 -12.3 3.8 -22.5 13.1 -22.5 20.5 0 8.4 8 16 22 20.8 7.8 2.7 24.6 3.1 35.1 0.9z"/>
  <path d="M96.3 74.5 c-12 -3.3 -19.2 -9.4 -20 -16.7 -0.7 -5.7 1.4 -9.9 6.9 -13.8 16.4 -11.9 51.3 -8.1 58.2 6.4 4.4 9.2 -1 17.2 -15.2 22.7 -7.4 2.8 -22.5 3.5 -29.9 1.4z m32.4 -5 c8.8 -4.4 10.5 -6.3 11.1 -12.3 0.4 -4.4 0.1 -5.2 -2.8 -8.5 -1.7 -2 -5.7 -4.9 -8.8 -6.4 -4.8 -2.3 -7.2 -2.8 -15.7 -3.1 -16 -0.6 -27.9 3.5 -32.5 11.1 -3.5 5.7 -1.9 11.4 4.6 16.3 6.2 4.7 12.6 6.3 25.5 6.4 11.3 0 11.8 -0.1 18.6 -3.5z"/>
 </g>
</svg>