<?xml version="1.0" encoding="utf-8"?>
<!DOCTYPE svg PUBLIC "-//W3C//DTD SVG 20010904//EN" "http://www.w3.org/TR/2001/REC-SVG-20010904/DTD/svg10.dtd">
<svg version="1.0" xmlns="http://www.w3.org/2000/svg" width="242px" height="242px" viewBox="0 0 242 242" preserveAspectRatio="xMidYMid meet">
 <g fill="#ffffff">
  <path d="M95.5 204.6 c-4.9 -2.3 -13.2 -7 -18.3 -10.4 -5.2 -3.4 -11.2 -7.2 -13.3 -8.4 l-4 -2.2 0.3 -24.1 0.3 -24 8 -16 8 -16 4 -0.5 4 -0.5 0.7 -19.5 c1 -32.9 1.7 -36.3 8.4 -41.8 6.4 -5.3 15.1 -7.7 27.9 -7.7 6.1 0.1 12.8 0.6 15 1.3 5.4 1.6 14.4 7.1 16.8 10.3 2.9 4 3.6 9.3 4.3 34.6 l0.7 23.3 8.6 6.1 c4.7 3.3 10.3 7.1 12.3 8.3 l3.8 2.1 0 23.2 0 23.3 -8 16.7 -8 16.8 -7.2 1.6 c-4 0.9 -9.9 2.4 -13.2 3.3 -7.8 2.3 -25.2 4.6 -34.6 4.5 -6.7 0 -8.4 -0.4 -16.5 -4.3z m46 -3.4 l23 -3.7 0.3 -19.7 c0.1 -12.3 -0.1 -19.8 -0.7 -19.8 -0.6 0 -12.7 1.8 -27 4 -14.3 2.2 -26.9 4 -28 4 -2.1 0 -2.1 0.4 -2.1 20.1 l0 20.1 5.8 -0.7 c3.1 -0.4 16.1 -2.3 28.7 -4.3z m-38.3 -25.7 l-0.3 -10 -14.2 -8 c-7.7 -4.4 -17.1 -9.7 -20.9 -11.8 l-6.8 -3.9 0.2 19.7 0.3 19.7 20.5 11.9 20.5 11.9 0.5 -9.7 c0.3 -5.4 0.4 -14.3 0.2 -19.8z m72.9 -1.6 l4.9 -10.9 0 -17.7 0 -17.8 -7 15 c-7.7 16.6 -7.5 15.6 -6.3 36.4 0.7 13 0.1 13.4 8.4 -5z m-61.6 -11 c1.1 -0.1 -1.4 -0.7 -5.6 -1.4 -4.2 -0.7 -8.7 -1.6 -10 -1.9 -1.3 -0.4 -0.4 0.5 2.1 1.9 3.3 1.8 5.4 2.4 8 2 1.9 -0.3 4.4 -0.5 5.5 -0.6z m7.8 -3.6 c-1.3 -0.2 -3.3 -0.2 -4.5 0 -1.3 0.2 -0.3 0.4 2.2 0.4 2.5 0 3.5 -0.2 2.3 -0.4z m12.7 -3.7 c4.7 -0.8 11.1 -2.4 14.2 -3.5 5.9 -2 15.5 -7.9 18 -10.8 0.7 -0.9 -0.9 0 -3.7 1.9 -12.4 8.8 -23 11.8 -42 11.8 -20.7 0 -35.3 -4.8 -45.5 -15 -3.9 -3.9 -4.1 -4 -1.9 -1 3.8 5.2 12.3 10.5 21.5 13.5 13.8 4.6 25.2 5.4 39.4 3.1z m26.8 -0.1 c2 -0.4 3.6 -1.8 5.2 -4.7 2.2 -4 1.6 -4.3 -2.1 -1.2 -0.8 0.8 -4 2.8 -7 4.4 -5.7 3.3 -5.7 3.3 3.9 1.5z m-18.8 -5 c11.9 -3.7 22.4 -10.7 25.4 -16.9 2.1 -4.5 2.1 -13.4 -0.1 -16.6 -2.4 -3.7 -6.5 -8 -8.7 -9.2 -1.8 -1 -1.9 -0.6 -1.2 10 0.8 12.2 0.2 14.4 -5.1 19.4 -6.8 6.4 -17.9 10.1 -30.8 10.1 -14.9 0.1 -27.2 -4.2 -34.5 -11.8 l-3.5 -3.6 0.3 -12.5 c0.1 -6.8 -0.1 -12.4 -0.6 -12.4 -1 0 -7.3 6.5 -9.6 10 -1 1.5 -1.6 4.5 -1.6 8 0 12.1 9.7 20.6 29.5 26.1 5.8 1.6 9.3 1.9 21 1.5 9.3 -0.3 15.9 -1 19.5 -2.1z m-73.5 -11 c-1.4 -2.6 -2.5 -6 -2.5 -7.4 -0.1 -2.5 -0.2 -2.4 -2 0.9 -1.1 1.9 -1.9 4 -2 4.7 0 1.1 8 7.6 8.6 7 0.2 -0.2 -0.8 -2.5 -2.1 -5.2z m73.3 -0.1 c8.5 -4.4 12.2 -8.6 12.2 -14.1 l0 -3.4 -3.3 2.5 c-7.4 5.7 -14.4 7.9 -26 8.4 -16.1 0.6 -25.4 -1.7 -34.4 -8.6 l-3.3 -2.4 0 3.3 c0 6.7 5.7 12.5 16 16.2 7.1 2.5 7.8 2.6 19.9 2.3 10.9 -0.3 11.6 -0.5 18.9 -4.2z m29.2 -5.7 c0 -1.2 0 -1.1 -2.4 2.8 l-1.7 3 2 -2.4 c1.2 -1.3 2.1 -2.8 2.1 -3.4z m-38.9 -4.1 c8.6 -1.9 13.7 -4.5 18.2 -9.5 3 -3.4 3.7 -4.9 3.7 -8.3 l0 -4.2 -2.7 2.6 c-13.9 13 -47.7 13 -61.5 0 l-2.8 -2.6 0 4.1 c0 13.4 23 22.5 45.1 17.9z m46.9 -7.3 c0 -0.6 -1.5 -2 -3.3 -3.1 l-3.4 -1.9 1.3 3.6 c0.7 2 1.4 5 1.4 6.6 l0.1 3 1.9 -3.5 c1.1 -1.9 1.9 -4 2 -4.7z m-39.6 -8.2 c9.5 -4.1 14.6 -9.6 14.6 -15.6 0 -3.2 -0.6 -3.1 -5.5 0.6 -13.4 10.1 -43.1 9.8 -56.8 -0.6 l-4.7 -3.6 0 3.1 c0 5.7 4 11 11 14.6 7.5 3.8 11.2 4.4 24 4.1 10.2 -0.3 13.4 -0.8 17.4 -2.6z m-0.6 -12.9 c9.9 -3.8 15.2 -9.5 15.2 -16.2 l0 -3.2 -4.9 3.6 c-8.4 6.2 -11.7 7 -28.6 7 -16.8 0 -20.3 -0.8 -28.5 -6.9 -2.6 -1.9 -5 -3.5 -5.4 -3.5 -0.8 0 0.5 6.1 2 9.2 2 3.9 7.8 7.9 15.3 10.6 5.8 2 8 2.2 18.1 1.9 8.4 -0.3 12.9 -1 16.8 -2.5z m-6.7 -11.6 c8.6 -1.9 13.7 -4.5 18.2 -9.5 3.6 -4 3.7 -4.4 3.7 -11.6 0 -4.1 -0.3 -7.5 -0.6 -7.5 -0.3 0 -1.5 1.1 -2.5 2.5 -1.1 1.3 -5 3.9 -8.7 5.7 -6.6 3.3 -6.7 3.3 -21.7 3.3 -14.1 0 -15.3 -0.2 -20.5 -2.6 -3 -1.5 -6.9 -4 -8.6 -5.8 -1.7 -1.7 -3.4 -2.8 -3.8 -2.4 -0.3 0.3 -0.6 3.5 -0.6 7.1 0 8 2.3 12.1 8.8 16 9.8 5.7 23.5 7.5 36.3 4.8z m1 -20 c11.1 -2.6 19 -9.2 19.2 -16 0.1 -4.4 -2.4 -8.1 -8.1 -11.7 -7.5 -4.8 -13.9 -6.2 -26.1 -5.7 -9.6 0.3 -11.3 0.6 -17.3 3.6 -11.2 5.5 -14.5 12.2 -9.9 19.9 2.3 3.7 9.5 8.2 16 9.9 6.1 1.7 19.3 1.7 26.2 0z"/>
  <path d="M108.8 67 c-7.9 -2.4 -12.8 -7.8 -12.8 -14.3 0 -10.4 18.7 -17.5 34.9 -13.3 11.1 2.9 16.1 7.4 16.1 14.7 0 4.1 -6.8 10.9 -12.7 12.7 -4.5 1.3 -21.3 1.5 -25.5 0.2z m26.7 -3.8 c4.1 -2.1 7.8 -5.6 8.7 -8.3 1.1 -3 -1.9 -7.7 -6.8 -10.5 -4.1 -2.4 -6.1 -2.9 -13.9 -3.2 -7.4 -0.3 -10 0 -14.7 1.8 -6.5 2.4 -9.8 5.9 -9.8 10.2 0 4.7 1.7 6.8 8.3 9.9 5.8 2.8 6.8 3 15.2 2.6 6.5 -0.3 10.1 -1 13 -2.5z"/>
 </g>
</svg>