<?xml version="1.0" encoding="utf-8"?>
<!DOCTYPE svg PUBLIC "-//W3C//DTD SVG 20010904//EN" "http://www.w3.org/TR/2001/REC-SVG-20010904/DTD/svg10.dtd">
<svg version="1.0" xmlns="http://www.w3.org/2000/svg" width="242px" height="242px" viewBox="0 0 242 242" preserveAspectRatio="xMidYMid meet">
 <g fill="#000000">
  <path d="M102.5 207.3 c-0.9 -0.6 -4.7 -2.4 -8.3 -3.9 -3.7 -1.5 -10.3 -5.3 -14.7 -8.4 -4.4 -3.1 -10.6 -7.1 -13.7 -8.9 l-5.8 -3.2 0 -21.9 0 -21.9 7.9 -17.2 c4.4 -9.4 8.2 -17.3 8.5 -17.6 0.3 -0.3 2.5 -0.8 4.9 -1 l4.4 -0.5 0.1 -19.7 c0.2 -23.8 1.2 -33 4.3 -37.5 7.3 -10.6 29.8 -15.3 47.5 -9.8 8.2 2.5 15.7 8.4 17.3 13.5 1.6 5.2 2.2 15.1 2.3 34.9 l0 18.5 6.5 4.9 c3.6 2.7 9.4 6.7 12.9 8.9 l6.4 4 0 22 -0.1 22 -8.2 17.5 -8.3 17.4 -6.9 1.2 c-3.9 0.6 -9.6 2.1 -12.7 3.2 -10.4 3.8 -40.7 6.2 -44.3 3.5z m30.8 -4.3 c14.4 -2.2 27.4 -4.3 29 -4.6 l2.7 -0.6 0 -20.4 0 -20.3 -2.7 0.5 c-4.8 0.8 -54.5 8.4 -55.4 8.4 -0.5 0 -0.9 9.2 -0.9 20.5 0 11.3 0.2 20.5 0.5 20.5 0.3 0 12.4 -1.8 26.8 -4z m-29.3 -17.2 l-0.1 -20.3 -16.2 -9.2 c-8.9 -5.1 -18.6 -10.6 -21.5 -12.3 l-5.2 -3 0 20.3 0 20.4 20.8 12.1 c11.4 6.6 21 12.1 21.5 12.1 0.4 0.1 0.7 -9 0.7 -20.1z m32.5 19.2 c2.7 -0.7 2.8 -0.8 0.5 -0.8 -1.4 -0.1 -4.3 0.3 -6.5 0.7 l-4 0.9 3.5 0 c1.9 0 4.9 -0.4 6.5 -0.8z m6.2 -1.6 c-0.3 -0.3 -1.2 -0.4 -1.9 -0.1 -0.8 0.3 -0.5 0.6 0.6 0.6 1.1 0.1 1.7 -0.2 1.3 -0.5z m32.2 -25.4 l7.1 -15.5 -0.2 -18.9 -0.3 -18.9 -7.2 15.7 -7.3 15.7 0 19.1 c0 10.5 0.2 18.9 0.4 18.7 0.2 -0.2 3.6 -7.4 7.5 -15.9z m-60.4 -14.6 l6 -0.8 -9.5 -1.3 c-5.2 -0.7 -11.5 -2 -13.9 -2.8 -5.4 -1.8 -4.8 -1.1 2.7 3.1 3.1 1.8 6.4 3.1 7.2 2.9 0.8 -0.2 4.2 -0.7 7.5 -1.1z m29.6 -5.9 c8.4 -2.2 16.5 -6.4 21.9 -11.5 l4.5 -4.2 -4.5 3.7 c-11.6 9.4 -28.9 14.1 -48.5 13.1 -17.8 -0.8 -30.6 -5 -40.5 -13.2 l-4.5 -3.8 3.5 3.8 c3.8 4.1 16.5 10.6 24.5 12.6 12 3 31 2.7 43.6 -0.5z m-3.8 -2.1 c19.9 -4.1 33.9 -16 33.6 -28.5 l-0.1 -4.4 -0.9 4.2 c-1.9 10.1 -7.3 16.1 -19.4 21.9 -9.4 4.5 -18.7 6.4 -32 6.4 -13.3 0 -22.6 -1.9 -32 -6.3 -11.8 -5.7 -17.9 -12.5 -19.5 -21.6 l-0.8 -4.6 -0.1 4.4 c-0.5 21.3 35.9 35.9 71.2 28.5z m19.6 1 c5.6 -0.7 5.5 -0.7 8.8 -7.7 l2.2 -4.8 -4.7 4 c-2.6 2.2 -7.6 5.4 -11.2 7.1 -4.5 2.2 -5.6 3 -3.4 2.6 1.7 -0.3 5.4 -0.8 8.3 -1.2z m-18.4 -4.9 c13.2 -3.5 23.8 -10.3 27.5 -17.5 2.4 -4.8 2.6 -12 0.4 -16.6 -1.6 -3.3 -9.8 -11.4 -11.5 -11.4 -0.9 0 -0.4 12.2 0.6 18.1 1.6 8.8 -9.4 18.6 -24.3 21.8 -24.8 5.2 -52.4 -6.9 -49.7 -21.8 1.1 -6.1 1.5 -18.1 0.5 -18.1 -1.5 0 -7.2 5.2 -10.1 9.4 -2.3 3.1 -2.9 5 -2.9 9.3 0 13.5 12.4 23.5 34.5 27.9 8.7 1.7 26.6 1.1 35 -1.1z m-67.7 -6.2 c-3.3 -3.6 -5.3 -7.7 -6.3 -12.8 l-0.7 -4 -2.4 4.5 c-1.2 2.5 -2.3 5 -2.4 5.6 0 0.9 12.3 9.2 13.9 9.4 0.3 0 -0.7 -1.2 -2.1 -2.7z m63.7 -2.7 c6.2 -1.9 13.8 -6.6 16 -9.9 1.9 -2.9 3 -8.9 2.1 -11.3 -0.5 -1.4 -0.9 -1.3 -2.6 0.9 -2.7 3.4 -12.6 8.3 -19.8 9.8 -3.3 0.6 -9.7 0.9 -15.2 0.6 -11 -0.5 -18.7 -3 -25.5 -8.3 -2.5 -1.9 -4.7 -3.4 -5 -3.4 -1.1 0 -0.4 7.3 0.9 9.8 3 5.8 10.6 10.4 21 12.8 7.3 1.7 20.9 1.2 28.1 -1z m38.5 -9.1 c0 -0.3 -0.2 -0.5 -0.5 -0.5 -0.3 0 -0.5 0.2 -0.5 0.5 0 0.3 0.2 0.5 0.5 0.5 0.3 0 0.5 -0.2 0.5 -0.5z m-37.7 -4.5 c11 -3.4 17.7 -10.2 17.7 -17.8 0 -4.2 -1.2 -4.6 -4.3 -1.3 -5.1 5.5 -19 10.1 -30.2 10.1 -11.4 0 -24.8 -4.5 -30.4 -10.1 -1.6 -1.6 -3.2 -2.9 -3.5 -2.9 -1.2 0 -0.5 8.2 0.9 10.9 5.9 11.5 30.6 17 49.8 11.1z m40.7 -2.2 c2.5 -5.8 2.4 -5.9 -4.3 -9.4 l-2.8 -1.5 1.6 3.1 c0.9 1.8 1.7 5.4 1.8 8.1 0.1 2.7 0.5 4.9 0.8 4.9 0.4 0 1.7 -2.3 2.9 -5.2z m-6.3 -6.5 c-0.4 -0.3 -0.7 0 -0.7 0.7 0 0.7 0.3 1 0.7 0.7 0.3 -0.4 0.3 -1 0 -1.4z m-101.7 0.2 c0 -0.3 -0.2 -0.5 -0.5 -0.5 -0.3 0 -0.5 0.2 -0.5 0.5 0 0.3 0.2 0.5 0.5 0.5 0.3 0 0.5 -0.2 0.5 -0.5z m69.3 -5.5 c9.5 -3.6 15.7 -10.3 15.7 -16.8 0 -4.3 -0.9 -4.5 -5.3 -0.7 -13.7 11.7 -44.7 11.7 -58.4 0 -2.3 -1.9 -4.4 -3.5 -4.8 -3.5 -0.4 0 -0.5 2.3 -0.3 5.1 0.8 8 7.6 13.9 20.1 17.4 7.9 2.2 25.5 1.4 33 -1.5z m-59.3 -9.6 c0 -0.2 -0.8 -0.4 -1.8 -0.4 -1.1 0 -2.4 1.2 -3.1 2.6 l-1.1 2.6 3 -2.2 c1.6 -1.2 3 -2.3 3 -2.6z m58.4 -3.3 c10.5 -3.7 16.6 -10.1 16.6 -17.3 0 -2.1 -0.2 -3.8 -0.5 -3.8 -0.3 0 -2.5 1.5 -5 3.4 -8.3 6.4 -14.3 8 -29 8 -14.7 0 -20.7 -1.6 -29 -8 -2.5 -1.9 -4.7 -3.4 -5 -3.4 -1.3 0 -0.3 7.9 1.4 10.6 3.5 5.7 8.7 8.9 19.6 12 7 2 23.2 1.2 30.9 -1.5z m-1.2 -13.1 c7.8 -2.4 14 -6.9 16.3 -11.6 1.4 -3 1.6 -5.1 1 -11.1 l-0.7 -7.5 -2.8 3.4 c-6.3 7.6 -17.9 11.3 -33.6 10.6 -12.6 -0.6 -20.2 -3.3 -26 -9.3 l-4.1 -4.3 -0.7 5.2 c-1 9 -0.7 11.1 2.3 15.3 7.7 10.6 30.1 14.9 48.3 9.3z m0.2 -19.8 c14.4 -5.2 19.8 -15.4 12.4 -23.7 -11.8 -13.5 -44.4 -14.1 -57.5 -1 -3.6 3.5 -4.3 4.9 -4.3 8.1 0 11.6 14.9 19.9 34.5 19 5.7 -0.2 11.1 -1.1 14.9 -2.4z"/>
  <path d="M109.3 66.6 c-12.7 -4 -17 -14.3 -8.9 -21.4 13 -11.4 42.8 -7.2 46.2 6.4 1.4 5.7 -3.9 11.8 -12.9 14.8 -5.7 1.9 -18.5 2 -24.4 0.2z m26.1 -2.5 c10.1 -4.4 12.6 -11.3 6.3 -17.6 -11.4 -11.4 -43.7 -6.7 -43.7 6.4 0 2 0.7 4.7 1.6 5.9 1.8 2.6 7.7 5.8 13.1 7.2 5.7 1.4 17.5 0.5 22.7 -1.9z"/>
 </g>
</svg>