<?xml version="1.0" encoding="utf-8"?>
<!DOCTYPE svg PUBLIC "-//W3C//DTD SVG 20010904//EN" "http://www.w3.org/TR/2001/REC-SVG-20010904/DTD/svg10.dtd">
<svg version="1.0" xmlns="http://www.w3.org/2000/svg" width="214px" height="215px" viewBox="0 0 214 215" preserveAspectRatio="xMidYMid meet">
 <g fill="#000000">
  <path d="M83.5 182 c-7.2 -1.3 -12.9 -3.5 -17.9 -6.9 -6.9 -4.8 -7.6 -7.1 -9.2 -30.7 l-0.6 -10.1 -4.4 -2.6 -4.4 -2.7 0 -9.9 0 -9.9 5.9 -12.4 c3.2 -6.9 6.5 -12.7 7.3 -13.1 0.8 -0.3 4 -0.8 7.1 -1.2 l5.7 -0.7 0 -8.7 c0 -10.1 1.8 -15 7.3 -19.8 4.6 -4 10.2 -5.6 15.5 -4.5 4 0.9 27.6 13.8 35 19.1 2.3 1.7 4.8 3.1 5.6 3.1 0.7 0 3.1 1.3 5.4 3 2.2 1.6 5.7 3.6 7.7 4.4 2 0.9 5.4 2.9 7.5 4.6 2.1 1.6 4.5 3 5.3 3 2.1 0 17.2 11.3 18 13.5 2 5 -0.8 15.8 -5.5 21.6 -2.2 2.7 -8.9 6.9 -11 6.9 -2.9 0 -17.7 -6.7 -21 -9.6 -1.6 -1.3 -3.4 -2.4 -3.9 -2.4 -0.6 0 -3 4.2 -5.3 9.3 -4.2 8.9 -4.4 9.7 -5.6 24.7 -0.7 8.5 -1.8 16.6 -2.5 18 -1.5 2.8 -5.6 6.8 -9.6 9.2 -6.7 4.2 -22.7 6.5 -32.4 4.8z m27.7 -3.9 c7 -2.7 13.7 -9.1 13.7 -12.9 0 -1.5 0.2 -4.4 0.5 -6.6 l0.5 -3.9 -3.2 3.1 c-13.3 12.8 -45.1 13.4 -59.1 1 -6.1 -5.3 -5.9 -2.7 0.2 3.2 7.8 7.5 20.9 10.7 36.2 8.8 8.7 -1 17.1 -4.6 21.8 -9.1 1.7 -1.7 3.2 -2.6 3.2 -2 0 1.8 -6 6.4 -11.6 8.9 -15.8 7.3 -40.3 4.5 -51.3 -5.9 l-3.3 -3.2 1.5 3 c4.3 8.6 16.3 13.6 32.2 13.6 12.5 0 21.3 -2.7 28.4 -8.6 1.7 -1.5 3.1 -2.2 3.1 -1.6 0 0.5 -1.5 2.1 -3.3 3.5 -14.8 11.3 -42.6 11 -56.9 -0.5 -4.3 -3.4 -4.8 -3 -1.7 1.2 2.6 3.7 8.9 7.4 15.9 9.4 8.1 2.2 25.7 1.5 33.2 -1.4z m-3.2 -13.7 c9.9 -2.8 16.9 -8.5 17.6 -14.4 0.2 -1.4 0.5 -4.2 0.8 -6.2 l0.4 -3.7 -3.1 2.9 c-14.2 13.4 -48.8 13.3 -62.6 -0.2 -4.2 -4.1 -4 -1.7 0.4 3.1 4.4 4.9 13.1 8.7 22.9 10.3 14.1 2.2 30.5 -1.9 38.4 -9.5 1.7 -1.7 3.2 -2.6 3.2 -2 0 3.2 -10.9 9.6 -20.2 11.8 -16.2 3.8 -34.2 0.3 -44.4 -8.8 -2.9 -2.5 -3.5 -2.7 -2.6 -1 1.4 2.6 1.5 3.6 0.3 2.9 -2.3 -1.5 0.6 4.1 3.9 7.4 8.7 8.7 28.5 11.9 45 7.4z m2 -15.3 c6.9 -2.2 15 -7.7 10 -6.8 -1.4 0.3 -5.2 1.5 -8.5 2.8 -4.6 1.7 -8.8 2.3 -18.2 2.7 -11.4 0.4 -12.6 0.3 -19.3 -2.3 -3.9 -1.5 -9.1 -4.3 -11.6 -6.1 -5.4 -4.1 -5.7 -3.1 -0.7 2.1 4.2 4.2 11.7 7.9 19 9.4 7.3 1.5 21.8 0.6 29.3 -1.8z m-6.5 -5.6 c9.4 -1.4 18 -2.8 19.3 -3 2.1 -0.5 2.2 -1.1 2.2 -8.5 0 -7.2 -0.2 -8 -1.9 -8 -1.1 0 -10.6 1.4 -21.1 3 -10.5 1.7 -19.6 3 -20.1 3 -0.5 0 -0.9 3.9 -0.9 8.6 l0 8.6 2.8 -0.6 c1.5 -0.3 10.4 -1.7 19.7 -3.1z m2 2 c6.6 -1.7 3 -1.7 -6.5 0 -6.4 1.1 -6.8 1.3 -3 1.3 2.5 0 6.8 -0.6 9.5 -1.3z m-25.5 -7.4 l0 -7.9 -15.2 -8.8 c-8.4 -4.8 -15.6 -8.9 -16.1 -9.1 -0.4 -0.2 -0.7 3.3 -0.7 7.9 l0.1 8.3 15.2 8.7 c8.3 4.8 15.5 8.8 16 8.8 0.4 0 0.7 -3.6 0.7 -7.9z m54.6 -23.8 c-3.1 -1.8 -3.4 -1.7 -6.1 3.7 -2 4 -2.5 6.3 -2.4 12.2 l0 7.3 5.3 -11 c5.2 -10.8 5.2 -11 3.2 -12.2z m-31.1 11.2 c22.9 -3.4 21.1 -2.8 24 -8.5 1.4 -2.7 2.5 -5.4 2.5 -5.9 0 -0.5 -2.1 -1.7 -4.6 -2.7 -2.5 -0.9 -6.1 -3 -8.1 -4.6 -4.1 -3.2 -5.3 -3.5 -5.3 -1.3 0 3.3 -3.2 7.6 -7.3 9.7 -6.3 3.4 -18.5 3.3 -24.7 -0.2 -6.2 -3.5 -7 -5.6 -7 -18.4 l0 -10.8 -3.7 0.6 c-10.1 1.7 -9 0.8 -15.4 14.3 -3.3 6.9 -5.8 12.7 -5.7 12.8 0.2 0.1 7.5 4.3 16.3 9.4 13.1 7.5 16.5 9.1 19 8.7 1.7 -0.3 10.7 -1.7 20 -3.1z m67.7 -3.2 c6.9 -6.3 10.6 -17 7.8 -22.3 -3.9 -7.2 -14 -2.3 -19.6 9.5 -6.4 13.4 1.5 22 11.8 12.8z m-15 -3.2 c-0.3 -3.4 0.3 -6.4 1.8 -9.9 2.3 -5.3 9.8 -13.2 12.4 -13.2 3.4 0 2.3 -2.2 -2.8 -5.6 -4.5 -2.9 -6.2 -3.5 -8.6 -3 -10.5 2 -20.7 21.3 -15.6 29.2 1.4 2 9.9 7 12.6 7.3 0.3 0.1 0.3 -2.1 0.2 -4.8z m-15.2 -8 c0 -8.3 5.2 -17.6 12.8 -22.9 l4.4 -3 -3.9 -2.6 c-5.7 -3.9 -9.4 -3.5 -15 1.7 -5.8 5.3 -9.3 12.5 -9.3 19.3 0 5.6 1 7.4 5.5 9.8 4.7 2.4 5.5 2 5.5 -2.3z m-37.5 0.1 c4.9 -2.4 6.5 -4.3 6.5 -7.8 0 -3.1 -0.6 -3.6 -10.9 -9.9 -10.1 -6 -20.1 -14.9 -20.1 -17.8 0 -0.5 2.7 1.9 5.9 5.4 3.3 3.5 8.1 7.6 10.8 9.1 l4.8 2.6 0 -5.6 c0.1 -3.8 0.8 -7.2 2.3 -10.2 2.6 -5.4 9.6 -12.8 12.9 -13.6 1.3 -0.4 2.3 -0.9 2.3 -1.3 0 -0.3 -4.6 -3.2 -10.3 -6.3 -8.7 -4.9 -11 -5.8 -15.2 -5.8 -6.7 0 -12.3 3.2 -15.5 9 -2.4 4.4 -2.5 5 -2.5 25.6 0 23 0 23 5.9 26.1 6.4 3.4 16.9 3.6 23.1 0.5z m25.1 -8 c0.2 -8.6 6.7 -19.2 14.1 -23.1 l3.5 -1.7 -3.9 -2.7 c-4.4 -3 -8.1 -3.4 -12.1 -1.3 -8.5 4.5 -15.3 19.2 -12.3 26.9 0.7 1.8 2.6 3.5 5.3 4.7 2.4 1.1 4.5 2 4.8 2 0.3 0 0.5 -2.1 0.6 -4.8z m-12.6 -6.9 c0 -8.5 7.3 -20.5 14 -23.3 3 -1.2 3 -1.3 1.3 -3.2 -1 -1.1 -3.1 -2.7 -4.6 -3.5 -8.4 -4.3 -21.7 10 -21.7 23.2 0 5.5 0.9 6.9 6.5 9.8 4.3 2.3 4.5 2.2 4.5 -3z m-12.4 -7.6 c0.2 -8.5 5.9 -17.9 13.9 -22.8 2.3 -1.5 2.6 -1.9 1.1 -1.9 -4.6 0 -12.1 7.1 -15.2 14.5 -1.9 4.5 -1.9 15.5 0 15.5 0.1 0 0.2 -2.4 0.2 -5.3z"/>
  <path d="M78.7 161.5 c-8.6 -2.2 -18.7 -8 -18.7 -10.7 0 -0.7 1.2 0 2.8 1.5 6.5 6.2 22.6 10.6 34.6 9.3 8.7 -1 18 -4.3 23.3 -8.3 2.5 -1.9 4.3 -2.9 4.1 -2.2 -0.7 2.1 -8.1 6.8 -14.3 9 -7.8 2.8 -23.5 3.5 -31.8 1.4z"/>
  <path d="M161.6 120.4 c-4.7 -4.7 2.8 -19.4 10 -19.4 5.3 0 6.8 5.4 3.5 12.6 -3.3 7.2 -9.9 10.5 -13.5 6.8z m8.3 -1.9 c4 -3.5 6.8 -10.7 5.3 -14 -1.5 -3.2 -4.2 -3.2 -8 0 -5.3 4.4 -7.4 13.3 -3.8 15.7 1.9 1.3 3.3 0.9 6.5 -1.7z"/>
 </g>
</svg>