<svg width="293" height="112" viewBox="0 0 293 112" fill="none" xmlns="http://www.w3.org/2000/svg">
<path fill-rule="evenodd" clip-rule="evenodd" d="M292.076 111.171C291.917 107.999 291.589 104.842 291.087 101.717C289.766 93.4924 287.589 85.8833 285.874 83.1343C282.189 77.0408 270.812 69.636 251.383 60.6597C235.226 53.2268 234.276 52.2654 231.63 40.752C230.218 34.9302 229.857 34.6697 215.931 30.2212C202.495 25.8533 200.533 25.5317 181.328 26.866C174.569 27.321 170.041 27.626 165.553 27.3306C156.448 26.7312 147.506 23.6616 120.424 14.3647C97.0103 6.34668 76.2979 0.282471 71.6482 0.0744629C66.9739 -0.289063 57.7437 0.716309 50.991 2.27856C41.0044 4.51953 36.6787 6.32861 29.1025 11.6843C11.8223 24.011 0.382324 44.95 0.214844 64.7151C0.290039 69.0459 2.55029 89.8005 5.48706 111.171H11.2263C4.40259 66.3999 3.41797 59.2463 5.11523 52.7988C5.42676 51.6157 5.82837 50.4565 6.30078 49.093C10.4829 36.4829 21.3682 22 32.2642 14.5193C40.436 8.90869 42.844 8.04419 56.9648 5.77588C72.1719 3.33301 72.8174 3.38843 87.5447 7.86743C101.756 12.1106 147.218 27.5701 148.479 28.4819C148.839 28.7424 143.537 38.3489 136.778 49.7812C129.864 61.2385 119.868 78.2844 114.542 87.7358C110.179 95.4805 107.787 99.728 106.759 104.283C106.284 106.388 106.1 108.559 106.148 111.171L123.811 111.171C120.233 109.834 116.223 108.137 113.964 106.93C110.101 104.685 110.101 104.685 125.535 76.8967C133.893 61.5464 142.952 45.6057 145.588 41.2029C147.799 37.6216 148.991 35.6899 150.677 35.0405C152.652 34.28 155.304 35.2778 161.061 37.4438C166.835 39.7 171.678 42.1055 171.778 42.7261C171.878 43.3467 168.846 49.2458 165.138 55.8904C161.275 62.5596 158.628 68.8743 159.268 69.8857C159.728 70.7671 159.077 71.6675 157.656 71.7366C156.259 71.9609 154.596 73.5015 154.095 75.333C153.438 77.1895 148.086 86.4856 142.45 95.9868C138.43 102.463 134.674 108.212 132.583 111.171H138.095C138.612 110.176 139.261 109.089 140.055 107.832C141.966 104.681 143.024 102.938 143.388 103.072C143.794 103.222 143.34 105.705 142.248 111.171H146.218C147.237 107.405 148.5 103.269 150.031 98.5891C154.083 86.1592 156.563 81.7812 165.359 71.136C177.2 56.6587 184.261 51.0674 193.682 48.2805C196.961 47.3552 198.598 46.8933 198.657 47.0447C198.716 47.1953 197.206 47.9551 194.192 49.4722C186.131 53.7915 177.607 62.1646 168.49 74.7717C160.202 86.3154 154.247 98.6064 150.741 111.171H154.984C156.969 104.627 159.607 98.001 162.888 91.4299C173.112 70.8455 190.736 52.7332 202.53 50.8389C206.564 50.1907 205.888 50.936 197.871 56.5217C178.648 69.6377 168.278 84.3562 160.379 109.502C160.209 110.043 160.04 110.601 159.87 111.171H164.002C172.63 84.2295 189.529 61.2856 206.505 55.7712C212.277 54.0481 212.147 54.2283 203.69 60.0439C189.075 70.0635 176.067 89.4646 168.632 111.171H172.624C177.656 97.1707 185.274 83.4722 193.345 74.9175C201.614 65.9485 211.629 58.9277 217.24 58.1855C220.499 57.6621 220.108 58.2024 215.311 61.0422C199.678 70.4729 184.468 90.4963 177.216 111.171H181.815C192.372 84.2368 212.348 61.7908 230.618 59.22C234.807 58.5471 234.392 58.9321 227.733 62.071C211.352 69.3669 195.731 88.4675 186.488 111.171H190.782C200.478 86.4685 218.266 67.4741 236.095 63.593C240.263 62.6746 242.258 62.2349 242.299 62.3743C242.337 62.5022 240.728 63.1182 237.642 64.2996C221.384 70.5586 205.644 88.7122 195.727 111.171H200.044C209.91 89.4946 225.863 71.6045 241.344 67.5254C244.609 66.6843 246.252 66.2612 246.323 66.4434C246.393 66.6277 244.851 67.4324 241.748 69.052C226.438 77.0173 213.452 92.8853 204.985 111.171H209.288C211.913 106.019 215.031 100.861 218.647 95.6846C228.106 82.2268 241.812 71.4294 251.017 70.2693C253.67 69.9204 255.033 69.7412 255.081 69.9187C255.132 70.1062 253.715 70.6917 250.8 71.8958C235.928 78.0217 222.65 92.4788 213.683 111.171H223.405C224.186 109.684 225 108.22 225.843 106.785C230.438 98.7251 242.653 86.5754 248.48 84.2068C250.838 83.032 250.212 84.0876 246.396 87.0884C238.373 93.4609 231.482 101.657 226.046 111.171H230.646C231.525 109.893 232.787 108.08 234.427 105.725C250.559 82.2812 273.045 76.5996 283.205 93.2729C284.69 95.5813 286.252 102.334 287.014 109.056C287.104 109.81 287.188 110.515 287.266 111.171H292.076ZM286.567 111.171C286.549 111.077 286.53 110.983 286.512 110.888C283.28 93.7385 274.156 85.4944 260.966 87.613C252.301 89.1643 243.713 95.1599 234.862 106.451C233.275 108.446 232.022 110.021 231.098 111.171L236.402 111.171C240.555 104.934 245.146 99.7258 249.258 96.9753C255.847 92.4148 266.865 90.645 272.043 93.1558C278.143 96.1501 281.668 102.783 282.966 111.171H286.567ZM37.491 111.171C26.7646 100.484 25.095 99.1641 24.2666 100.487C23.3865 101.589 26.3694 105.785 31.5425 111.171H37.491ZM256.577 78.1306C249.905 79.2026 245.114 81.0864 240.702 84.342C237.302 86.9575 231.663 92.4795 228.177 96.5415C223.674 102.199 223.909 101.684 229.274 94.4551C245.369 72.7681 266.745 67.106 279.684 81.2634C282.199 84.043 281.554 83.9875 274.314 80.5344C267.049 76.926 264.932 76.6294 256.577 78.1306ZM144.891 98.3008C145.356 98.2258 145.717 98.4863 145.791 98.9519C145.866 99.4175 145.605 99.7776 145.14 99.8523C144.675 99.9272 144.314 99.6667 144.24 99.2012C144.165 98.7356 144.425 98.3755 144.891 98.3008ZM182.021 49.6907L181.684 49.8896C177.793 52.4248 171.744 57.376 168.338 60.9475C165.586 63.8174 164.069 65.3999 163.872 65.25C163.63 65.0657 165.385 62.2639 169.297 56.0181C173.056 50.0164 174.824 47.1946 177.355 45.5474C179.602 44.0859 182.449 43.5493 187.825 42.5361C197.886 40.7605 198.687 40.791 194.101 42.9604C191.354 44.1758 186.054 47.3071 182.021 49.6907ZM227.527 39.9785C228.197 40.1892 229.037 42.4419 229.46 45.0798C230.283 50.2007 229.402 50.6606 224.354 47.9697C222.422 46.8472 217.163 44.8269 212.469 43.3525C208.543 42.1882 206.461 41.571 206.502 41.1753C206.549 40.729 209.298 40.5649 215.149 40.2158C221.276 39.7092 226.676 39.6377 227.527 39.9785ZM171.976 31.0745C194.465 29.3718 205.21 29.874 212.171 32.5762C215.541 33.9546 217.285 34.6682 217.227 35.1741C217.164 35.7166 215.027 36.02 210.597 36.6494C194.073 38.8262 178.623 38.7615 169.8 36.3584C164.796 34.9338 160.723 33.3596 160.648 32.894C160.573 32.4285 165.694 31.606 171.976 31.0745Z" fill="white"/>
</svg>
