<svg width="252" height="120" viewBox="0 0 252 120" fill="none" xmlns="http://www.w3.org/2000/svg">
<path fill-rule="evenodd" clip-rule="evenodd" d="M251.306 119.123C250.16 115.468 248.826 111.458 247.253 106.864C234.737 69.499 234.098 67.9331 226.898 60.3682C226.159 59.5522 225.362 58.6804 224.55 57.7913C221.712 54.6843 218.68 51.3657 217.202 49.4836C210.154 41.1716 194.953 29.1096 180.603 20.8103C172.717 16.0376 162.777 9.59131 158.555 6.51978C145.175 -3.31738 144.979 -3.23755 99.7656 15.2234C76.502 24.7222 65.3574 29.1577 55.7314 35.7961C46.1636 42.3945 38.0967 51.1697 21.1206 69.2571L0.702637 90.8389L2.16211 102.803C2.61035 107.054 3.21143 113.214 3.75586 119.123H13.0156C13.3081 115.272 13.7954 111.496 14.4863 107.819C20.6099 74.718 44.8921 60.9214 72.7847 74.4241C90.5254 82.8657 106.294 98.4895 118.66 119.123H125C120.256 109.885 116.266 104.34 109.77 96.7739C86.4941 69.9683 64.9053 59.6006 41.8125 64.0056L32.9526 65.7964L41.8765 61.9243C62.9712 52.6262 95.5938 68.7649 118.663 99.5371C122.419 104.541 126.447 111.375 130.372 119.123H144.675L138.322 109.094C132.405 99.6353 127.634 91.3069 127.945 90.9514C128.329 89.6531 141.956 101.216 143.271 103.876C143.75 105.051 145.321 110.575 146.695 116.18L147.434 119.123H155.053C154.166 108.853 155.823 104.644 159.425 100.934C163.047 96.9434 175.53 91.1614 208.884 77.7712L228.341 70.0552L229.804 76.9937C230.374 79.0488 232.885 89.3538 236.333 103.503C237.507 108.322 238.79 113.587 240.141 119.123H251.306ZM137.384 87.7825C144.595 91.4607 150.651 92.8701 155.082 91.9749C158.844 91.1235 175.641 84.7219 192.51 77.3777L223.196 64.1636L192.402 40.199C164.289 18.2732 152.689 8.67041 140.333 7.57202C130.305 6.68066 119.778 11.3911 99.5225 19.6616C82.1826 26.97 67.6626 33.3552 67.2354 33.9863C66.3887 36.3875 125.879 81.9756 137.384 87.7825ZM54.1387 52.8069C58.6846 51.636 66.8496 51.4993 72.2749 52.4812C77.584 53.739 81.9062 54.2578 81.8262 54.062C81.6665 53.6704 76.5366 50.0559 70.3047 45.978C61.8232 40.3066 58.3198 38.9968 56.3706 40.9346C54.9287 42.4368 51.6533 45.6008 49.1167 47.7783C42.6021 53.6353 44.1846 55.2729 54.1387 52.8069Z" fill="white"/>
</svg>
