<svg width="22" height="22" viewBox="0 0 22 22" fill="none" xmlns="http://www.w3.org/2000/svg">
<path d="M21.1123 6.67341L18.5597 9.22598C18.4911 11.7488 17.5282 14.2093 15.8938 16.0157C13.9795 18.1315 11.3367 19.2498 8.25112 19.2498C5.25086 19.2498 3.70432 17.7378 3.63995 17.6734C3.55202 17.5855 3.48958 17.4753 3.4593 17.3547C3.42902 17.2341 3.43203 17.1075 3.468 16.9884C3.50398 16.8694 3.57157 16.7623 3.66358 16.6786C3.75559 16.595 3.86858 16.5378 3.9905 16.5133C4.72424 16.3647 6.54555 15.7858 7.32058 14.7425C6.48961 14.2633 5.75173 13.6385 5.14226 12.8977C2.98594 10.2793 3.03163 6.98871 3.4497 4.68929C3.4733 4.55949 3.53375 4.43923 3.62383 4.34284C3.71392 4.24646 3.82983 4.17803 3.95774 4.14572C4.08564 4.11341 4.22015 4.11858 4.3452 4.16062C4.47025 4.20266 4.58056 4.27979 4.66298 4.3828C4.6866 4.41218 6.9462 7.18047 10.3136 8.08487V7.56253C10.3209 6.46168 10.765 5.40877 11.5483 4.63526C12.3316 3.86174 13.3901 3.43095 14.4909 3.43758C15.206 3.44748 15.9063 3.64268 16.5234 4.00412C17.1405 4.36556 17.6532 4.88088 18.0117 5.49974L20.6261 5.49978C20.7621 5.49978 20.895 5.5401 21.0081 5.61564C21.1211 5.69118 21.2093 5.79855 21.2613 5.92417C21.3133 6.0498 21.3269 6.18803 21.3004 6.32139C21.2739 6.45475 21.2084 6.57725 21.1123 6.67341Z" fill="#0D0E10"/>
</svg>
